<?xml version="1.0" encoding="UTF-8" ?>
<!DOCTYPE svg PUBLIC "-//W3C//DTD SVG 1.1//EN" "http://www.w3.org/Graphics/SVG/1.1/DTD/svg11.dtd">
<svg width="400pt" height="400pt" viewBox="0 0 400 400" version="1.1" xmlns="http://www.w3.org/2000/svg">
<path fill="#ebceac" d=" M 0.00 0.00 L 5.49 0.00 C 11.61 8.90 18.69 17.08 26.23 24.78 C 29.73 28.62 32.83 32.83 36.78 36.23 C 45.08 43.30 51.36 52.36 59.27 59.83 C 64.81 64.95 69.52 70.84 74.64 76.36 C 73.79 77.39 72.98 78.43 72.16 79.48 C 69.63 77.12 67.20 74.66 65.01 71.99 C 59.48 65.21 52.58 59.72 46.92 53.07 C 40.90 45.81 33.81 39.54 27.31 32.73 C 18.70 22.55 8.71 13.67 0.00 3.59 L 0.00 0.00 Z" />
<path fill="#f4ddd9" d=" M 5.49 0.00 L 54.84 0.00 C 68.31 19.46 82.05 38.75 95.39 58.31 C 87.80 63.46 80.66 69.41 74.64 76.36 C 69.52 70.84 64.81 64.95 59.27 59.83 C 51.36 52.36 45.08 43.30 36.78 36.23 C 32.83 32.83 29.73 28.62 26.23 24.78 C 18.69 17.08 11.61 8.90 5.49 0.00 Z" />
<path fill="#eed0b0" d=" M 54.84 0.00 L 59.43 0.00 C 72.42 18.82 85.41 37.64 98.48 56.41 C 97.43 57.02 96.41 57.66 95.39 58.31 C 82.05 38.75 68.31 19.46 54.84 0.00 Z" />
<path fill="#e8c379" d=" M 59.43 0.00 L 89.63 0.00 C 93.48 7.69 96.62 15.72 100.71 23.30 C 104.97 31.86 109.35 40.38 113.39 49.06 C 108.25 51.16 103.31 53.69 98.48 56.41 C 85.41 37.64 72.42 18.82 59.43 0.00 Z" />
<path fill="#efd2b4" d=" M 89.63 0.00 L 94.71 0.00 C 101.22 16.32 110.51 31.36 117.15 47.62 C 115.88 48.08 114.63 48.55 113.39 49.06 C 109.35 40.38 104.97 31.86 100.71 23.30 C 96.62 15.72 93.48 7.69 89.63 0.00 Z" />
<path fill="#f8e1e4" d=" M 94.71 0.00 L 118.93 0.00 C 124.90 14.42 129.71 29.29 135.39 43.82 C 129.14 44.10 123.00 45.46 117.15 47.62 C 110.51 31.36 101.22 16.32 94.71 0.00 Z" />
<path fill="#f1d4bb" d=" M 118.93 0.00 L 124.53 0.00 C 129.84 14.51 134.93 29.10 139.97 43.71 C 138.44 43.73 136.91 43.75 135.39 43.82 C 129.71 29.29 124.90 14.42 118.93 0.00 Z" />
<path fill="#ebc57e" d=" M 124.53 0.00 L 142.68 0.00 C 145.73 14.91 149.35 29.71 152.98 44.50 C 148.66 43.99 144.33 43.58 139.97 43.71 C 134.93 29.10 129.84 14.51 124.53 0.00 Z" />
<path fill="#f1d3b6" d=" M 142.68 0.00 L 145.96 0.00 C 148.22 7.68 149.68 15.57 151.59 23.34 C 152.98 30.50 155.24 37.50 155.89 44.78 C 155.16 44.71 153.71 44.57 152.98 44.50 C 149.35 29.71 145.73 14.91 142.68 0.00 Z" />
<path fill="#fae2e9" d=" M 145.96 0.00 L 164.64 0.00 C 166.45 11.84 167.84 23.75 169.49 35.62 C 170.19 39.68 170.75 43.80 170.42 47.93 C 165.78 46.07 160.88 45.04 155.89 44.78 C 155.24 37.50 152.98 30.50 151.59 23.34 C 149.68 15.57 148.22 7.68 145.96 0.00 Z" />
<path fill="#f1d2b4" d=" M 164.64 0.00 L 168.70 0.00 C 171.03 16.45 173.18 32.96 174.91 49.49 C 173.41 48.98 171.91 48.45 170.42 47.93 C 170.75 43.80 170.19 39.68 169.49 35.62 C 167.84 23.75 166.45 11.84 164.64 0.00 Z" />
<path fill="#ebc680" d=" M 168.70 0.00 L 182.87 0.00 C 182.44 10.01 183.66 20.00 183.71 30.01 C 183.73 37.54 183.95 45.08 183.72 52.62 C 180.84 51.41 177.86 50.50 174.91 49.49 C 173.18 32.96 171.03 16.45 168.70 0.00 Z" />
<path fill="#f2d4b6" d=" M 182.87 0.00 L 186.21 0.00 C 187.43 8.28 186.35 16.69 187.07 25.01 C 187.19 34.83 187.94 44.63 187.59 54.44 C 186.31 53.81 185.03 53.19 183.72 52.62 C 183.95 45.08 183.73 37.54 183.71 30.01 C 183.66 20.00 182.44 10.01 182.87 0.00 Z" />
<path fill="#fbe3eb" d=" M 186.21 0.00 L 202.82 0.00 C 202.12 17.01 200.70 33.97 199.88 50.98 C 199.80 54.33 199.19 57.64 198.29 60.86 C 194.89 58.45 191.31 56.31 187.59 54.44 C 187.94 44.63 187.19 34.83 187.07 25.01 C 186.35 16.69 187.43 8.28 186.21 0.00 Z" />
<path fill="#f2d3b6" d=" M 202.82 0.00 L 206.80 0.00 C 205.57 21.44 204.11 42.88 202.52 64.31 C 201.15 63.11 199.74 61.95 198.29 60.86 C 199.19 57.64 199.80 54.33 199.88 50.98 C 200.70 33.97 202.12 17.01 202.82 0.00 Z" />
<path fill="#ebc681" d=" M 206.80 0.00 L 220.25 0.00 C 220.04 3.01 219.80 6.02 219.27 8.99 C 216.87 22.43 214.86 35.94 212.49 49.39 C 211.23 56.40 210.69 63.54 208.86 70.45 C 206.82 68.32 204.71 66.27 202.52 64.31 C 204.11 42.88 205.57 21.44 206.80 0.00 Z" />
<path fill="#f1d1b1" d=" M 220.25 0.00 L 224.25 0.00 C 223.86 6.19 222.40 12.24 221.47 18.36 C 219.14 32.92 216.53 47.44 214.23 62.01 C 213.69 65.98 212.92 69.91 211.85 73.77 C 210.87 72.64 209.88 71.53 208.86 70.45 C 210.69 63.54 211.23 56.40 212.49 49.39 C 214.86 35.94 216.87 22.43 219.27 8.99 C 219.80 6.02 220.04 3.01 220.25 0.00 Z" />
<path fill="#fae3ea" d=" M 224.25 0.00 L 243.27 0.00 C 235.33 28.37 228.40 57.03 220.44 85.40 C 217.77 81.38 214.91 77.49 211.85 73.77 C 212.92 69.91 213.69 65.98 214.23 62.01 C 216.53 47.44 219.14 32.92 221.47 18.36 C 222.40 12.24 223.86 6.19 224.25 0.00 Z" />
<path fill="#f2d4ba" d=" M 243.27 0.00 L 247.82 0.00 C 243.96 12.34 241.29 25.03 237.45 37.38 C 232.75 54.78 228.22 72.24 223.04 89.50 C 222.20 88.12 221.32 86.76 220.44 85.40 C 228.40 57.03 235.33 28.37 243.27 0.00 Z" />
<path fill="#ebc580" d=" M 247.82 0.00 L 266.07 0.00 C 257.84 19.96 250.38 40.23 242.30 60.25 C 237.20 72.81 232.55 85.54 227.43 98.09 C 226.12 95.15 224.69 92.27 223.04 89.50 C 228.22 72.24 232.75 54.78 237.45 37.38 C 241.29 25.03 243.96 12.34 247.82 0.00 Z" />
<path fill="#f2d4ba" d=" M 266.07 0.00 L 271.02 0.00 C 267.21 7.78 264.62 16.09 261.03 23.97 C 257.38 33.07 253.53 42.09 250.30 51.35 C 245.24 63.99 240.18 76.64 235.10 89.28 C 233.37 93.82 231.70 98.40 229.34 102.66 C 228.74 101.12 228.10 99.60 227.43 98.09 C 232.55 85.54 237.20 72.81 242.30 60.25 C 250.38 40.23 257.84 19.96 266.07 0.00 Z" />
<path fill="#fae2e8" d=" M 271.02 0.00 L 290.98 0.00 C 289.61 3.39 288.92 7.00 287.66 10.43 C 281.73 23.95 275.18 37.19 268.40 50.30 C 265.65 55.47 264.10 61.17 261.20 66.26 C 251.32 82.43 243.71 99.93 233.38 115.84 C 232.23 111.39 230.92 106.98 229.34 102.66 C 231.70 98.40 233.37 93.82 235.10 89.28 C 240.18 76.64 245.24 63.99 250.30 51.35 C 253.53 42.09 257.38 33.07 261.03 23.97 C 264.62 16.09 267.21 7.78 271.02 0.00 Z" />
<path fill="#f3d8c8" d=" M 290.98 0.00 L 301.01 0.00 C 291.80 15.99 283.56 32.52 274.52 48.62 C 265.06 65.79 255.72 83.04 246.20 100.18 C 242.29 107.02 238.99 114.22 234.50 120.71 C 234.16 119.07 233.78 117.45 233.38 115.84 C 243.71 99.93 251.32 82.43 261.20 66.26 C 264.10 61.17 265.65 55.47 268.40 50.30 C 275.18 37.19 281.73 23.95 287.66 10.43 C 288.92 7.00 289.61 3.39 290.98 0.00 Z" />
<path fill="#e9c47d" d=" M 301.01 0.00 L 334.13 0.00 C 323.55 13.85 313.49 28.08 302.91 41.93 C 288.33 61.07 274.38 80.69 259.97 99.95 C 252.03 110.77 244.36 121.81 236.02 132.32 C 235.78 128.42 235.21 124.55 234.50 120.71 C 238.99 114.22 242.29 107.02 246.20 100.18 C 255.72 83.04 265.06 65.79 274.52 48.62 C 283.56 32.52 291.80 15.99 301.01 0.00 Z" />
<path fill="#efd3b7" d=" M 334.13 0.00 L 339.21 0.00 C 334.89 4.18 331.68 9.29 328.07 14.06 C 319.19 25.53 310.69 37.31 301.70 48.70 C 286.61 70.19 270.16 90.68 254.90 112.03 C 248.43 120.30 242.69 129.11 236.03 137.22 C 236.04 135.59 236.06 133.96 236.02 132.32 C 244.36 121.81 252.03 110.77 259.97 99.95 C 274.38 80.69 288.33 61.07 302.91 41.93 C 313.49 28.08 323.55 13.85 334.13 0.00 Z" />
<path fill="#f5ddd9" d=" M 339.21 0.00 L 354.62 0.00 C 357.84 6.88 361.47 13.67 363.55 21.00 C 363.12 25.15 360.28 28.55 357.67 31.62 C 349.56 40.84 341.55 50.16 332.73 58.71 C 328.73 62.95 323.98 66.56 320.89 71.59 C 316.16 77.01 310.33 81.29 305.35 86.46 C 298.25 93.65 290.91 100.61 283.87 107.86 C 280.06 112.07 274.73 114.53 271.14 118.98 C 270.59 118.93 269.49 118.84 268.94 118.79 C 282.05 104.93 296.56 92.25 307.76 76.70 C 309.31 74.36 311.26 71.59 310.36 68.65 C 309.30 65.28 308.05 61.86 305.89 59.03 C 304.92 58.57 303.71 58.15 302.69 58.67 C 296.31 62.05 291.93 67.93 287.14 73.12 C 283.49 75.91 281.24 79.92 278.58 83.57 C 272.40 91.11 266.89 99.18 260.81 106.80 C 254.65 114.39 249.21 122.52 243.29 130.29 C 240.82 133.69 238.86 137.46 235.91 140.50 C 235.94 139.68 236.00 138.04 236.03 137.22 C 242.69 129.11 248.43 120.30 254.90 112.03 C 270.16 90.68 286.61 70.19 301.70 48.70 C 310.69 37.31 319.19 25.53 328.07 14.06 C 331.68 9.29 334.89 4.18 339.21 0.00 Z" />
<path fill="#f0d8c9" d=" M 354.62 0.00 L 395.30 0.00 C 387.40 7.86 379.63 15.84 371.88 23.84 C 368.39 28.04 363.93 31.23 360.19 35.18 C 351.49 43.81 342.87 52.53 334.09 61.08 C 329.80 64.71 326.05 69.12 320.89 71.59 C 323.98 66.56 328.73 62.95 332.73 58.71 C 341.55 50.16 349.56 40.84 357.67 31.62 C 360.28 28.55 363.12 25.15 363.55 21.00 C 361.47 13.67 357.84 6.88 354.62 0.00 Z" />
<path fill="#eecda2" d=" M 395.30 0.00 L 400.00 0.00 L 400.00 0.55 C 384.49 15.84 369.22 31.37 353.60 46.55 C 344.29 54.69 335.83 63.73 327.04 72.42 C 325.18 73.75 323.29 75.06 321.65 76.66 C 311.69 86.70 301.63 96.65 291.61 106.63 C 281.89 114.50 273.82 124.15 264.56 132.54 C 258.07 137.69 252.66 143.99 246.66 149.67 C 242.71 153.91 238.05 157.51 234.72 162.30 C 241.43 160.18 246.58 155.14 252.45 151.50 C 276.50 136.34 299.67 119.83 323.89 104.93 C 326.23 103.50 328.35 101.75 330.46 100.01 C 343.84 91.18 357.50 82.75 370.84 73.86 C 380.64 67.65 389.99 60.77 400.00 54.89 L 400.00 62.78 C 385.72 70.19 372.04 78.67 358.52 87.39 C 338.12 101.57 316.75 114.28 296.20 128.24 C 274.19 142.17 252.88 157.19 230.96 171.24 C 232.06 165.58 233.37 159.96 234.32 154.26 C 237.26 152.26 239.90 149.85 242.30 147.23 C 246.92 142.19 252.51 138.16 257.24 133.24 C 261.88 128.49 266.82 124.03 271.14 118.98 C 274.73 114.53 280.06 112.07 283.87 107.86 C 290.91 100.61 298.25 93.65 305.35 86.46 C 310.33 81.29 316.16 77.01 320.89 71.59 C 326.05 69.12 329.80 64.71 334.09 61.08 C 342.87 52.53 351.49 43.81 360.19 35.18 C 363.93 31.23 368.39 28.04 371.88 23.84 C 379.63 15.84 387.40 7.86 395.30 0.00 Z" />
<path fill="#e4c072" d=" M 353.60 46.55 C 369.22 31.37 384.49 15.84 400.00 0.55 L 400.00 54.89 C 389.99 60.77 380.64 67.65 370.84 73.86 C 357.50 82.75 343.84 91.18 330.46 100.01 C 327.65 100.76 324.96 101.91 322.58 103.57 C 316.07 107.92 308.92 111.13 302.20 115.10 C 302.59 110.39 302.30 105.68 302.27 100.97 C 302.16 98.63 304.43 97.28 305.80 95.72 C 309.31 92.57 312.18 88.81 315.32 85.32 C 319.18 80.97 324.12 77.56 327.04 72.42 C 335.83 63.73 344.29 54.69 353.60 46.55 Z" />
<path fill="#e5c172" d=" M 0.00 3.59 C 8.71 13.67 18.70 22.55 27.31 32.73 C 33.81 39.54 40.90 45.81 46.92 53.07 C 52.58 59.72 59.48 65.21 65.01 71.99 C 67.20 74.66 69.63 77.12 72.16 79.48 C 67.37 85.57 62.50 91.79 59.56 99.03 C 54.36 94.60 48.54 91.00 43.01 87.02 C 28.70 76.92 14.23 67.03 0.00 56.82 L 0.00 3.59 Z" />
<path fill="#000000" d=" M 135.39 43.82 C 136.91 43.75 138.44 43.73 139.97 43.71 C 144.33 43.58 148.66 43.99 152.98 44.50 C 153.71 44.57 155.16 44.71 155.89 44.78 C 160.88 45.04 165.78 46.07 170.42 47.93 C 171.91 48.45 173.41 48.98 174.91 49.49 C 177.86 50.50 180.84 51.41 183.72 52.62 C 185.03 53.19 186.31 53.81 187.59 54.44 C 191.31 56.31 194.89 58.45 198.29 60.86 C 199.74 61.95 201.15 63.11 202.52 64.31 C 204.71 66.27 206.82 68.32 208.86 70.45 C 209.88 71.53 210.87 72.64 211.85 73.77 C 214.91 77.49 217.77 81.38 220.44 85.40 C 221.32 86.76 222.20 88.12 223.04 89.50 C 224.69 92.27 226.12 95.15 227.43 98.09 C 228.10 99.60 228.74 101.12 229.34 102.66 C 230.92 106.98 232.23 111.39 233.38 115.84 C 233.78 117.45 234.16 119.07 234.50 120.71 C 235.21 124.55 235.78 128.42 236.02 132.32 C 236.06 133.96 236.04 135.59 236.03 137.22 C 236.00 138.04 235.94 139.68 235.91 140.50 C 235.52 145.10 234.99 149.69 234.32 154.26 C 233.37 159.96 232.06 165.58 230.96 171.24 C 230.84 171.78 230.60 172.84 230.48 173.37 C 229.88 175.96 229.27 178.54 228.65 181.11 C 228.49 181.71 228.18 182.91 228.03 183.51 C 227.76 184.51 227.49 185.52 227.22 186.53 C 231.63 186.13 236.34 187.19 239.29 190.72 C 239.96 191.90 240.63 193.09 241.23 194.32 C 242.02 197.51 242.14 200.81 242.01 204.08 C 241.84 205.34 241.64 206.60 241.41 207.85 C 240.91 210.20 240.29 212.51 239.56 214.80 C 239.09 216.05 238.57 217.28 238.04 218.51 C 236.93 221.13 235.46 223.58 233.64 225.77 C 232.91 226.66 232.16 227.53 231.41 228.39 C 230.21 229.74 228.97 231.04 227.79 232.39 C 227.01 233.32 226.27 234.28 225.61 235.30 C 224.57 237.20 223.61 239.14 222.59 241.06 C 222.30 241.58 221.74 242.61 221.45 243.13 C 220.36 244.55 219.18 245.92 217.94 247.21 C 217.13 247.96 216.31 248.69 215.47 249.39 C 214.30 250.00 213.12 250.56 211.90 251.05 C 210.79 251.46 209.69 251.87 208.58 252.28 C 207.41 253.02 206.65 254.19 206.04 255.40 C 204.31 259.12 202.68 262.91 200.56 266.42 C 197.93 270.64 194.25 274.05 190.36 277.09 C 189.73 277.56 188.47 278.51 187.84 278.99 C 186.23 280.16 184.59 281.31 182.92 282.39 C 181.08 283.55 179.23 284.70 177.38 285.83 C 176.08 286.62 174.77 287.41 173.47 288.20 C 170.97 289.69 168.48 291.20 165.98 292.69 C 164.73 293.43 163.47 294.17 162.23 294.92 C 159.42 296.59 156.80 298.53 154.15 300.44 C 156.45 300.75 158.74 301.06 161.03 301.48 C 161.98 301.72 162.92 301.99 163.86 302.30 C 166.54 303.22 169.65 304.20 170.52 307.29 L 170.40 307.73 C 171.63 307.83 172.86 307.95 174.10 308.08 C 176.50 308.37 178.90 308.71 181.29 309.05 C 182.72 309.25 184.15 309.45 185.58 309.65 C 188.17 310.01 190.75 310.38 193.35 310.71 C 194.54 310.85 195.74 310.98 196.94 311.16 C 200.03 311.52 200.92 314.72 202.35 316.96 C 202.81 316.96 203.73 316.97 204.18 316.97 C 205.25 316.93 206.33 316.89 207.40 316.84 C 211.16 316.70 214.91 316.78 218.67 316.77 C 222.87 316.72 227.06 316.38 231.26 316.21 C 232.01 316.17 233.52 316.09 234.28 316.05 C 238.96 315.86 243.63 315.50 248.32 315.49 C 249.69 315.48 251.06 315.49 252.43 315.49 C 258.39 315.39 264.39 315.39 270.26 316.59 C 273.22 317.06 276.17 317.53 279.11 318.12 C 280.91 318.51 282.72 318.86 284.54 319.24 C 281.49 309.57 278.45 299.63 279.22 289.35 C 279.25 287.68 279.30 286.02 279.40 284.36 C 279.83 277.40 280.40 270.45 281.16 263.51 C 281.31 262.21 281.46 260.91 281.63 259.61 C 282.94 252.57 282.55 245.13 285.21 238.42 C 286.79 238.98 288.32 239.67 289.83 240.42 C 289.83 239.35 289.83 238.28 289.84 237.21 C 288.16 235.17 287.18 231.81 284.08 231.72 C 280.94 231.27 277.85 230.26 275.50 228.06 C 271.90 224.26 268.18 219.65 268.49 214.10 C 267.20 213.21 265.89 212.33 264.66 211.36 C 262.94 209.78 261.25 208.17 259.71 206.43 C 258.02 204.21 256.35 201.77 256.05 198.93 C 256.15 196.57 257.05 194.36 257.65 192.10 C 257.99 190.89 258.34 189.68 258.70 188.48 C 260.36 185.05 263.31 182.53 265.39 179.38 C 267.57 175.91 271.15 173.66 274.86 172.13 C 281.41 172.48 287.56 168.92 294.15 170.21 C 297.96 171.01 302.02 169.62 305.68 171.21 C 309.85 172.82 313.66 175.24 317.27 177.85 C 318.45 178.99 319.60 180.17 320.68 181.41 C 321.38 182.31 322.06 183.24 322.68 184.20 C 327.85 194.44 332.30 205.08 335.79 216.02 C 336.09 217.00 336.39 217.99 336.67 218.98 C 337.06 220.38 337.45 221.80 337.82 223.22 C 338.62 226.29 339.27 229.41 340.04 232.50 C 343.47 236.16 340.30 241.44 340.30 245.76 C 341.25 245.50 343.14 245.00 344.09 244.74 C 347.01 247.43 344.99 251.47 344.88 254.81 C 344.67 256.33 344.47 257.86 344.28 259.39 C 344.13 260.50 343.99 261.62 343.85 262.74 C 342.35 274.49 340.55 286.20 338.96 297.94 C 338.74 299.50 338.52 301.07 338.27 302.63 C 337.99 304.25 337.66 305.87 337.32 307.48 C 335.24 316.82 333.30 326.18 331.13 335.50 C 330.74 337.21 330.35 338.93 329.97 340.65 C 328.90 348.71 324.62 356.51 317.46 360.63 C 313.65 362.10 309.73 363.31 305.78 364.33 C 304.46 364.54 303.13 364.74 301.81 364.92 C 294.21 366.09 286.59 367.03 278.97 368.02 C 277.88 368.16 276.79 368.30 275.71 368.45 C 268.15 369.64 260.51 369.96 252.87 370.30 C 252.05 370.34 250.39 370.42 249.56 370.46 C 245.31 370.67 241.06 370.81 236.81 370.98 C 235.51 371.02 234.22 371.07 232.92 371.12 C 232.36 371.14 231.23 371.17 230.67 371.19 C 225.13 371.31 219.63 372.01 214.11 372.50 C 213.26 372.58 211.56 372.73 210.71 372.81 C 208.39 373.03 206.08 373.27 203.77 373.54 C 203.55 382.50 201.68 391.31 199.58 400.00 L 194.43 400.00 C 196.62 390.14 199.06 380.22 198.78 370.05 C 199.01 358.02 199.53 346.00 199.07 333.97 C 198.89 328.05 199.52 321.34 195.82 316.31 C 187.90 314.76 179.81 314.02 171.82 312.87 C 174.84 324.20 178.16 335.44 181.33 346.73 C 182.13 349.77 183.32 352.74 183.62 355.89 C 183.67 357.72 181.81 358.66 180.60 359.68 C 174.88 363.63 169.06 367.42 163.52 371.61 C 169.50 374.81 175.49 377.98 181.48 381.14 C 179.73 387.88 175.78 393.76 172.80 400.00 L 167.69 400.00 C 170.56 394.51 173.30 388.96 175.95 383.36 C 170.38 380.48 164.83 377.57 159.30 374.62 C 157.75 373.91 156.78 372.50 155.89 371.13 C 163.61 365.93 171.27 360.65 178.85 355.25 C 174.74 340.45 170.54 325.68 166.47 310.86 C 165.53 305.26 158.48 306.00 154.21 305.08 C 153.67 308.04 153.25 311.01 153.01 314.02 C 151.44 334.36 149.63 354.68 147.14 374.94 C 146.16 383.36 144.60 391.71 142.81 400.00 L 138.90 400.00 L 138.17 399.99 C 142.49 379.96 144.66 359.52 146.17 339.12 C 143.62 335.84 140.36 333.17 137.67 330.00 C 134.80 330.95 131.87 331.74 129.11 332.95 C 123.90 335.47 119.32 339.15 113.99 341.42 C 108.52 339.06 104.20 334.67 98.78 332.21 C 95.89 331.01 92.90 330.06 89.98 328.97 C 87.07 331.61 84.12 334.21 81.23 336.86 C 83.06 357.90 83.51 379.08 86.59 400.00 L 81.97 400.00 C 77.94 368.13 77.19 335.95 74.62 303.95 C 70.69 303.84 66.80 304.47 63.10 305.81 C 58.21 321.41 52.96 336.91 48.21 352.56 C 54.66 357.50 61.21 362.34 67.62 367.34 C 68.86 368.22 70.84 370.31 68.68 371.45 C 62.71 374.87 56.31 377.52 50.12 380.53 C 52.94 387.07 55.80 393.60 58.94 400.00 L 54.13 400.00 C 50.82 392.82 47.10 385.76 44.70 378.21 C 50.80 375.28 56.92 372.40 62.98 369.40 C 56.93 364.61 50.56 360.23 44.64 355.29 C 42.90 354.02 43.36 351.78 43.97 350.05 C 48.23 336.93 52.68 323.86 56.73 310.67 C 48.62 311.63 40.29 311.41 32.33 313.21 C 30.42 316.06 29.61 319.50 29.23 322.87 C 28.12 336.89 27.91 350.96 27.73 365.01 C 27.49 376.82 30.44 388.34 31.87 400.00 L 26.63 400.00 C 26.13 395.31 25.28 390.68 24.63 386.02 C 20.16 390.77 15.75 395.59 10.93 400.00 L 3.74 400.00 C 10.67 393.68 17.12 386.84 23.52 379.99 C 22.04 367.44 23.07 354.80 23.13 342.21 C 23.86 332.53 23.35 322.68 25.99 313.25 C 23.46 314.49 20.96 315.94 19.15 318.15 C 12.82 325.37 6.47 332.58 0.00 339.67 L 0.00 331.69 C 4.88 326.04 9.93 320.55 14.88 314.97 C 18.42 311.08 23.29 308.08 28.69 307.96 C 38.51 307.26 48.32 306.32 58.12 305.39 C 59.64 301.26 64.26 300.58 68.03 299.80 C 71.32 299.22 74.78 298.90 77.95 300.22 C 78.08 300.13 78.33 299.96 78.46 299.87 C 73.22 295.36 69.70 289.30 66.43 283.31 C 65.81 282.16 65.20 281.01 64.59 279.87 C 59.60 269.54 52.27 260.63 46.42 250.81 C 45.66 249.57 44.92 248.33 44.20 247.08 C 41.98 243.08 39.67 239.04 38.65 234.55 C 37.48 229.32 37.45 223.93 37.30 218.60 C 37.52 216.42 36.52 214.55 34.87 213.21 C 28.93 208.35 27.69 200.17 27.44 192.95 C 27.54 185.41 22.28 178.89 23.03 171.29 C 23.10 170.42 23.24 168.69 23.31 167.82 C 24.35 160.33 26.06 152.17 31.68 146.69 C 35.77 142.57 42.41 143.65 46.90 146.53 C 47.19 145.07 47.48 143.61 47.78 142.16 C 48.05 140.90 48.31 139.64 48.58 138.38 C 51.37 126.03 54.30 113.66 58.52 101.71 C 58.78 101.04 59.30 99.70 59.56 99.03 C 62.50 91.79 67.37 85.57 72.16 79.48 C 72.98 78.43 73.79 77.39 74.64 76.36 C 80.66 69.41 87.80 63.46 95.39 58.31 C 96.41 57.66 97.43 57.02 98.48 56.41 C 103.31 53.69 108.25 51.16 113.39 49.06 C 114.63 48.55 115.88 48.08 117.15 47.62 C 123.00 45.46 129.14 44.10 135.39 43.82 Z" />
<path fill="#ffcc99" d=" M 125.49 50.33 C 135.93 48.26 146.65 48.92 157.14 50.28 C 164.76 50.58 171.63 54.19 178.80 56.38 C 182.85 57.43 186.41 59.69 189.98 61.79 C 193.47 63.92 197.10 65.95 199.84 69.06 C 207.58 75.48 213.43 83.86 218.66 92.37 C 222.89 99.06 225.09 106.71 227.69 114.12 C 226.89 114.63 226.07 115.11 225.24 115.56 C 226.30 115.50 227.33 115.68 228.32 116.09 C 229.42 123.38 231.50 130.61 230.96 138.06 C 230.44 146.25 229.09 154.55 227.12 162.41 C 226.65 162.52 225.69 162.75 225.22 162.86 C 225.23 162.99 225.25 163.26 225.26 163.40 C 225.69 163.45 226.54 163.56 226.96 163.61 C 225.94 171.68 223.48 179.70 221.59 187.67 C 220.70 187.84 218.93 188.17 218.04 188.34 C 217.78 188.32 217.24 188.28 216.98 188.27 C 216.86 187.68 216.62 186.51 216.51 185.93 C 216.48 186.83 216.46 187.73 216.45 188.64 C 213.67 189.11 210.91 189.68 208.17 190.31 C 207.70 190.41 206.77 190.61 206.30 190.71 L 205.79 188.18 C 205.22 186.53 204.17 185.04 202.54 184.32 C 198.32 182.15 193.66 180.94 189.03 180.00 C 178.77 178.19 168.47 176.55 158.22 174.66 C 153.69 174.06 148.82 173.70 144.64 175.92 C 143.04 175.38 141.44 174.84 139.83 174.31 C 135.43 172.60 130.67 172.41 126.01 172.42 C 124.46 169.57 121.76 167.73 118.84 166.49 C 108.25 163.02 97.36 160.59 86.68 157.44 C 81.64 155.83 76.36 155.25 71.12 154.80 C 72.66 153.93 74.12 152.61 76.02 152.71 C 82.48 152.37 88.69 154.58 95.07 155.18 C 103.38 156.06 111.83 157.59 120.16 156.11 C 124.02 155.52 127.33 153.35 130.71 151.54 C 130.98 149.13 131.97 146.52 130.70 144.23 C 126.87 144.32 123.32 145.96 119.56 146.47 C 110.04 147.82 100.63 145.21 91.57 142.57 C 85.13 140.80 77.73 138.93 71.56 142.53 C 67.12 145.32 63.64 151.24 65.99 156.43 C 65.41 157.35 64.84 158.28 64.26 159.20 C 60.11 156.03 55.88 152.97 51.69 149.84 C 54.41 136.27 57.38 122.73 61.39 109.47 C 62.04 109.49 63.34 109.51 63.99 109.53 C 63.38 109.46 62.14 109.31 61.53 109.24 C 62.69 105.86 63.84 102.47 65.21 99.16 C 66.76 95.33 69.44 92.11 71.18 88.37 C 71.58 89.04 71.98 89.70 72.38 90.38 L 71.91 86.96 L 74.34 88.55 C 73.73 88.03 73.13 87.50 72.53 86.96 C 80.19 77.55 88.61 68.40 99.17 62.21 C 105.99 58.20 112.92 53.88 120.73 52.17 C 121.17 52.30 122.06 52.57 122.51 52.70 C 122.75 51.24 124.22 50.68 125.49 50.33 Z" />
<path fill="#d3ac57" d=" M 137.02 51.30 C 140.35 51.44 135.50 54.29 137.02 51.30 Z" />
<path fill="#e3b76e" d=" M 142.01 51.14 C 143.63 50.62 144.21 51.17 143.73 52.79 C 142.11 53.31 141.53 52.76 142.01 51.14 Z" />
<path fill="#d9b060" d=" M 153.05 51.33 C 156.38 51.31 151.65 54.38 153.05 51.33 Z" />
<path fill="#c2a03d" d=" M 132.08 52.25 C 135.41 52.32 130.59 55.27 132.08 52.25 Z" />
<path fill="#c6a344" d=" M 124.01 54.23 C 127.34 54.40 122.42 57.20 124.01 54.23 Z" />
<path fill="#c4a140" d=" M 127.17 55.29 C 130.50 55.42 125.63 58.28 127.17 55.29 Z" />
<path fill="#c2a03d" d=" M 134.05 55.21 C 137.37 55.41 132.46 58.17 134.05 55.21 Z" />
<path fill="#e5b973" d=" M 170.14 55.18 C 171.78 54.67 172.32 55.23 171.76 56.85 C 170.11 57.36 169.58 56.80 170.14 55.18 Z" />
<path fill="#d2ab55" d=" M 144.22 56.06 C 145.49 56.70 145.47 57.39 144.16 58.12 C 142.89 57.48 142.91 56.80 144.22 56.06 Z" />
<path fill="#eacca1" d=" M 0.00 56.82 C 14.23 67.03 28.70 76.92 43.01 87.02 C 48.54 91.00 54.36 94.60 59.56 99.03 C 59.30 99.70 58.78 101.04 58.52 101.71 C 42.89 91.41 27.97 80.07 12.37 69.73 C 8.24 66.79 4.00 64.02 0.00 60.90 L 0.00 56.82 Z" />
<path fill="#d7af5e" d=" M 114.20 57.13 C 115.49 57.75 115.48 58.43 114.17 59.16 C 112.87 58.54 112.88 57.86 114.20 57.13 Z" />
<path fill="#bc9b34" d=" M 156.17 58.28 C 156.73 58.76 156.73 58.76 156.17 58.28 Z" />
<path fill="#cca74d" d=" M 168.24 58.29 C 168.74 58.81 168.74 58.81 168.24 58.29 Z" />
<path fill="#fbe3eb" d=" M 302.69 58.67 C 303.71 58.15 304.92 58.57 305.89 59.03 C 308.05 61.86 309.30 65.28 310.36 68.65 C 311.26 71.59 309.31 74.36 307.76 76.70 C 296.56 92.25 282.05 104.93 268.94 118.79 C 269.49 118.84 270.59 118.93 271.14 118.98 C 266.82 124.03 261.88 128.49 257.24 133.24 C 252.51 138.16 246.92 142.19 242.30 147.23 C 239.90 149.85 237.26 152.26 234.32 154.26 C 234.99 149.69 235.52 145.10 235.91 140.50 C 238.86 137.46 240.82 133.69 243.29 130.29 C 249.21 122.52 254.65 114.39 260.81 106.80 C 266.89 99.18 272.40 91.11 278.58 83.57 C 281.24 79.92 283.49 75.91 287.14 73.12 C 291.93 67.93 296.31 62.05 302.69 58.67 Z" />
<path fill="#e2b76e" d=" M 117.25 59.21 C 118.89 59.29 118.56 62.01 117.06 62.05 C 115.42 61.96 115.75 59.26 117.25 59.21 Z" />
<path fill="#bc9b34" d=" M 105.18 60.25 C 105.70 60.76 105.70 60.76 105.18 60.25 Z" />
<path fill="#dcb265" d=" M 159.07 60.12 C 160.68 59.61 161.24 60.18 160.73 61.81 C 159.11 62.32 158.55 61.75 159.07 60.12 Z" />
<path fill="#c4a140" d=" M 164.12 60.27 C 167.44 60.46 162.52 63.24 164.12 60.27 Z" />
<path fill="#f4dcd7" d=" M 0.00 60.90 C 4.00 64.02 8.24 66.79 12.37 69.73 C 27.97 80.07 42.89 91.41 58.52 101.71 C 54.30 113.66 51.37 126.03 48.58 138.38 C 32.33 131.65 15.94 125.21 0.00 117.75 L 0.00 60.90 Z" />
<path fill="#caa64a" d=" M 123.03 61.14 C 126.36 61.41 121.40 64.07 123.03 61.14 Z" />
<path fill="#cda74d" d=" M 140.07 61.11 C 143.39 61.28 138.51 64.09 140.07 61.11 Z" />
<path fill="#c4a140" d=" M 143.03 62.32 C 146.36 62.40 141.54 65.34 143.03 62.32 Z" />
<path fill="#d2ab55" d=" M 172.05 62.35 C 173.42 61.71 173.91 62.12 173.52 63.58 C 172.15 64.22 171.66 63.81 172.05 62.35 Z" />
<path fill="#d6ae5c" d=" M 185.21 61.99 C 186.52 62.56 186.53 63.24 185.24 64.04 C 183.93 63.47 183.92 62.79 185.21 61.99 Z" />
<path fill="#dab162" d=" M 104.24 63.12 C 105.88 62.59 106.40 63.14 105.81 64.78 C 104.17 65.30 103.65 64.75 104.24 63.12 Z" />
<path fill="#f2d9ce" d=" M 358.52 87.39 C 372.04 78.67 385.72 70.19 400.00 62.78 L 400.00 121.07 C 359.84 136.43 319.55 151.47 279.12 166.12 C 264.30 171.78 249.19 176.63 234.39 182.34 C 232.37 183.18 230.20 183.50 228.03 183.51 C 228.18 182.91 228.49 181.71 228.65 181.11 C 245.92 174.76 263.51 169.11 280.41 161.79 C 283.91 160.74 287.57 160.12 290.82 158.36 C 302.64 155.50 312.99 148.62 324.82 145.83 C 338.34 140.57 351.74 134.96 364.97 129.00 C 368.54 127.73 371.69 124.32 371.48 120.36 C 370.53 112.50 368.54 104.81 367.20 97.01 C 366.96 94.16 364.82 91.55 361.99 90.98 C 359.48 91.48 357.23 92.77 355.01 93.97 C 338.74 103.13 322.77 112.83 307.33 123.33 C 300.45 127.95 292.82 131.50 286.63 137.09 C 267.52 148.56 249.64 161.98 230.48 173.37 C 230.60 172.84 230.84 171.78 230.96 171.24 C 252.88 157.19 274.19 142.17 296.20 128.24 C 316.75 114.28 338.12 101.57 358.52 87.39 Z" />
<path fill="#d9b060" d=" M 111.25 64.38 C 114.57 64.74 109.52 67.26 111.25 64.38 Z" />
<path fill="#cca74d" d=" M 126.26 64.37 C 126.78 64.86 126.78 64.86 126.26 64.37 Z" />
<path fill="#cca74d" d=" M 177.18 64.22 C 177.70 64.72 177.70 64.72 177.18 64.22 Z" />
<path fill="#e0b56a" d=" M 151.13 65.19 C 152.51 64.67 153.00 65.12 152.59 66.54 C 151.20 67.07 150.71 66.62 151.13 65.19 Z" />
<path fill="#d3ac56" d=" M 181.04 65.10 C 184.35 65.42 179.34 68.00 181.04 65.10 Z" />
<path fill="#bc9b34" d=" M 123.26 66.24 C 123.75 66.78 123.75 66.78 123.26 66.24 Z" />
<path fill="#cca74d" d=" M 136.27 66.31 C 136.76 66.84 136.76 66.84 136.27 66.31 Z" />
<path fill="#cfa951" d=" M 186.27 66.44 C 187.61 66.69 187.81 67.40 186.88 68.58 C 185.54 68.33 185.34 67.62 186.27 66.44 Z" />
<path fill="#e1b66c" d=" M 106.16 66.98 C 109.60 66.18 106.18 71.05 105.24 68.12 C 105.47 67.83 105.93 67.26 106.16 66.98 Z" />
<path fill="#cda74d" d=" M 113.20 67.39 C 116.52 67.68 111.53 70.31 113.20 67.39 Z" />
<path fill="#d1aa53" d=" M 100.11 68.11 C 103.44 68.01 98.78 71.20 100.11 68.11 Z" />
<path fill="#dab162" d=" M 130.37 68.05 C 131.75 67.64 132.25 68.15 131.85 69.55 C 130.46 69.96 129.97 69.45 130.37 68.05 Z" />
<path fill="#c2a03d" d=" M 166.08 68.32 C 169.41 68.28 164.69 71.39 166.08 68.32 Z" />
<path fill="#cba64a" d=" M 147.03 69.44 C 150.36 69.45 145.60 72.48 147.03 69.44 Z" />
<path fill="#c2a03d" d=" M 178.04 69.33 C 181.37 69.25 176.68 72.41 178.04 69.33 Z" />
<path fill="#dfb56a" d=" M 120.01 70.19 C 123.33 70.51 118.31 73.08 120.01 70.19 Z" />
<path fill="#c4a140" d=" M 192.33 70.18 C 192.82 70.72 192.82 70.72 192.33 70.18 Z" />
<path fill="#d7af5d" d=" M 151.18 71.18 C 152.79 70.59 153.32 71.12 152.77 72.78 C 151.15 73.38 150.62 72.84 151.18 71.18 Z" />
<path fill="#c2a03d" d=" M 157.02 71.22 C 160.35 71.30 155.53 74.24 157.02 71.22 Z" />
<path fill="#d9b05f" d=" M 105.16 72.05 C 106.56 71.55 107.00 72.02 106.48 73.45 C 105.08 73.95 104.64 73.48 105.16 72.05 Z" />
<path fill="#ddb366" d=" M 127.21 72.10 C 130.15 70.49 127.43 75.42 127.21 72.10 Z" />
<path fill="#d0aa53" d=" M 162.21 72.24 C 162.74 72.72 162.74 72.72 162.21 72.24 Z" />
<path fill="#d9b060" d=" M 137.16 73.32 C 138.55 72.76 139.03 73.19 138.58 74.62 C 137.19 75.19 136.71 74.76 137.16 73.32 Z" />
<path fill="#ecc67e" d=" M 321.65 76.66 C 323.29 75.06 325.18 73.75 327.04 72.42 C 324.12 77.56 319.18 80.97 315.32 85.32 C 312.18 88.81 309.31 92.57 305.80 95.72 C 304.43 97.28 302.16 98.63 302.27 100.97 C 302.30 105.68 302.59 110.39 302.20 115.10 C 308.92 111.13 316.07 107.92 322.58 103.57 C 324.96 101.91 327.65 100.76 330.46 100.01 C 328.35 101.75 326.23 103.50 323.89 104.93 C 299.67 119.83 276.50 136.34 252.45 151.50 C 246.58 155.14 241.43 160.18 234.72 162.30 C 238.05 157.51 242.71 153.91 246.66 149.67 C 252.66 143.99 258.07 137.69 264.56 132.54 C 273.82 124.15 281.89 114.50 291.61 106.63 C 301.63 96.65 311.69 86.70 321.65 76.66 Z" />
<path fill="#c8a446" d=" M 89.29 74.30 C 89.82 74.79 89.82 74.79 89.29 74.30 Z" />
<path fill="#d5ad59" d=" M 100.29 74.33 C 100.79 74.83 100.79 74.83 100.29 74.33 Z" />
<path fill="#d8af5e" d=" M 108.19 74.10 C 109.47 74.75 109.44 75.42 108.11 76.13 C 106.82 75.48 106.85 74.80 108.19 74.10 Z" />
<path fill="#d4ad59" d=" M 122.14 74.19 C 123.54 73.66 124.00 74.11 123.50 75.55 C 122.10 76.08 121.65 75.63 122.14 74.19 Z" />
<path fill="#e0b56a" d=" M 163.12 74.19 C 164.51 73.67 165.00 74.12 164.57 75.54 C 163.17 76.06 162.69 75.61 163.12 74.19 Z" />
<path fill="#caa64a" d=" M 182.01 74.16 C 185.34 74.24 180.54 77.18 182.01 74.16 Z" />
<path fill="#e0b56a" d=" M 150.14 75.40 C 151.53 75.00 152.02 75.49 151.60 76.90 C 150.20 77.30 149.72 76.81 150.14 75.40 Z" />
<path fill="#d5ad59" d=" M 180.20 75.15 C 181.49 75.76 181.48 76.45 180.20 77.22 C 178.91 76.61 178.91 75.92 180.20 75.15 Z" />
<path fill="#c8a447" d=" M 94.22 76.08 C 97.21 74.55 94.33 79.42 94.22 76.08 Z" />
<path fill="#c09e3a" d=" M 144.30 76.30 C 144.81 76.82 144.81 76.82 144.30 76.30 Z" />
<path fill="#d2ab55" d=" M 155.18 76.05 C 156.46 76.65 156.46 77.34 155.16 78.12 C 153.87 77.52 153.88 76.83 155.18 76.05 Z" />
<path fill="#cfa951" d=" M 117.10 77.26 C 118.49 76.92 118.96 77.45 118.53 78.85 C 117.13 79.19 116.66 78.66 117.10 77.26 Z" />
<path fill="#d0aa53" d=" M 132.22 77.30 C 132.72 77.81 132.72 77.81 132.22 77.30 Z" />
<path fill="#ddb366" d=" M 172.18 77.00 C 175.14 75.43 172.34 80.33 172.18 77.00 Z" />
<path fill="#c2a03d" d=" M 193.27 76.97 C 196.35 75.62 193.18 80.30 193.27 76.97 Z" />
<path fill="#c6a343" d=" M 203.10 77.33 C 206.42 77.32 201.70 80.38 203.10 77.33 Z" />
<path fill="#c09e3a" d=" M 82.37 78.22 C 82.88 78.73 82.88 78.73 82.37 78.22 Z" />
<path fill="#ddb366" d=" M 96.21 78.09 C 99.21 76.58 96.32 81.42 96.21 78.09 Z" />
<path fill="#d5ad5a" d=" M 106.09 78.23 C 109.42 78.42 104.51 81.19 106.09 78.23 Z" />
<path fill="#dcb265" d=" M 126.08 78.17 C 127.70 77.65 128.26 78.20 127.78 79.83 C 126.16 80.35 125.59 79.80 126.08 78.17 Z" />
<path fill="#ddb366" d=" M 159.07 78.29 C 162.40 78.29 157.66 81.34 159.07 78.29 Z" />
<path fill="#d4ad59" d=" M 90.14 79.14 C 91.54 78.64 91.99 79.11 91.49 80.54 C 90.09 81.04 89.64 80.57 90.14 79.14 Z" />
<path fill="#dab161" d=" M 184.19 79.17 C 185.70 79.25 185.16 81.69 183.89 81.74 C 182.39 81.63 182.94 79.25 184.19 79.17 Z" />
<path fill="#d1aa53" d=" M 168.13 81.31 C 169.49 80.73 169.96 81.18 169.53 82.64 C 168.16 83.22 167.69 82.77 168.13 81.31 Z" />
<path fill="#d6ae5b" d=" M 175.06 81.43 C 176.43 81.02 176.93 81.52 176.54 82.94 C 175.17 83.35 174.67 82.85 175.06 81.43 Z" />
<path fill="#e0b56b" d=" M 191.27 81.11 C 192.89 80.57 193.44 81.12 192.92 82.76 C 191.30 83.30 190.75 82.75 191.27 81.11 Z" />
<path fill="#dcb265" d=" M 139.21 82.27 C 140.64 81.03 141.74 83.67 140.46 84.50 C 139.04 85.75 137.93 83.09 139.21 82.27 Z" />
<path fill="#c09e3a" d=" M 151.16 82.27 C 151.67 82.78 151.67 82.78 151.16 82.27 Z" />
<path fill="#cda74d" d=" M 155.01 82.40 C 158.34 82.60 153.40 85.35 155.01 82.40 Z" />
<path fill="#dbb263" d=" M 91.10 83.38 C 94.43 83.29 89.76 86.46 91.10 83.38 Z" />
<path fill="#bc9b34" d=" M 83.31 84.20 C 83.83 84.72 83.83 84.72 83.31 84.20 Z" />
<path fill="#e3b86f" d=" M 125.20 84.12 C 126.85 83.64 127.40 84.20 126.85 85.81 C 125.21 86.29 124.66 85.73 125.20 84.12 Z" />
<path fill="#cba64a" d=" M 185.04 84.40 C 188.36 84.54 183.50 87.40 185.04 84.40 Z" />
<path fill="#dab161" d=" M 203.20 84.24 C 204.69 84.34 204.19 86.75 202.92 86.80 C 201.42 86.70 201.92 84.29 203.20 84.24 Z" />
<path fill="#d2ab55" d=" M 147.11 85.24 C 148.49 84.89 148.97 85.41 148.56 86.82 C 147.18 87.17 146.69 86.65 147.11 85.24 Z" />
<path fill="#bc9b34" d=" M 133.26 86.28 C 133.76 86.82 133.76 86.82 133.26 86.28 Z" />
<path fill="#bc9b34" d=" M 143.25 86.21 C 143.78 86.72 143.78 86.72 143.25 86.21 Z" />
<path fill="#ddb366" d=" M 158.31 85.98 C 161.35 84.56 158.32 89.32 158.31 85.98 Z" />
<path fill="#dcb264" d=" M 192.16 86.21 C 193.78 85.64 194.34 86.18 193.82 87.82 C 192.19 88.38 191.63 87.84 192.16 86.21 Z" />
<path fill="#e2b76e" d=" M 200.19 86.30 C 201.61 86.36 201.52 88.80 200.11 88.79 C 198.67 88.72 198.77 86.29 200.19 86.30 Z" />
<path fill="#dbb263" d=" M 209.13 86.35 C 212.46 86.34 207.72 89.40 209.13 86.35 Z" />
<path fill="#ddb366" d=" M 83.36 87.12 C 86.31 85.53 83.56 90.45 83.36 87.12 Z" />
<path fill="#c9a447" d=" M 87.06 87.17 C 90.39 87.35 85.49 90.14 87.06 87.17 Z" />
<path fill="#c2a03d" d=" M 131.09 87.28 C 134.41 87.53 129.48 90.22 131.09 87.28 Z" />
<path fill="#d3ac56" d=" M 179.05 87.16 C 182.38 87.39 177.44 90.10 179.05 87.16 Z" />
<path fill="#cea84f" d=" M 77.10 89.16 C 78.48 88.59 78.93 89.04 78.45 90.51 C 77.07 91.08 76.63 90.63 77.10 89.16 Z" />
<path fill="#d5ad5a" d=" M 151.08 89.37 C 154.40 89.52 149.54 92.36 151.08 89.37 Z" />
<path fill="#dbb263" d=" M 169.25 89.23 C 170.84 88.64 171.40 89.18 170.91 90.85 C 169.32 91.43 168.76 90.89 169.25 89.23 Z" />
<path fill="#ddb366" d=" M 188.25 89.09 C 191.18 87.46 188.49 92.42 188.25 89.09 Z" />
<path fill="#e6b973" d=" M 136.18 90.34 C 137.78 89.80 138.34 90.36 137.85 92.01 C 136.24 92.54 135.68 91.98 136.18 90.34 Z" />
<path fill="#ddb366" d=" M 147.22 90.26 C 148.72 90.36 148.18 92.78 146.89 92.79 C 145.38 92.68 145.93 90.28 147.22 90.26 Z" />
<path fill="#cba64a" d=" M 196.11 90.16 C 199.44 90.43 194.47 93.09 196.11 90.16 Z" />
<path fill="#deb468" d=" M 213.16 90.06 C 214.78 89.54 215.35 90.10 214.88 91.73 C 213.26 92.24 212.68 91.69 213.16 90.06 Z" />
<path fill="#c6a344" d=" M 71.22 91.14 C 74.17 89.54 71.45 94.46 71.22 91.14 Z" />
<path fill="#d0aa53" d=" M 165.26 91.22 C 165.79 91.71 165.79 91.71 165.26 91.22 Z" />
<path fill="#d1aa53" d=" M 183.18 91.08 C 186.51 91.31 181.56 94.02 183.18 91.08 Z" />
<path fill="#f6dfdd" d=" M 355.01 93.97 C 357.23 92.77 359.48 91.48 361.99 90.98 C 364.82 91.55 366.96 94.16 367.20 97.01 C 368.54 104.81 370.53 112.50 371.48 120.36 C 371.69 124.32 368.54 127.73 364.97 129.00 C 351.74 134.96 338.34 140.57 324.82 145.83 C 312.99 148.62 302.64 155.50 290.82 158.36 C 296.97 153.64 304.83 152.16 311.64 148.65 C 317.08 145.97 323.76 143.23 325.84 137.00 C 325.55 132.12 324.10 127.40 323.05 122.64 C 322.19 122.60 321.35 122.55 320.50 122.51 C 320.25 122.00 319.76 120.99 319.52 120.48 C 313.49 122.35 307.71 124.93 302.46 128.46 C 297.11 131.22 292.45 135.31 286.63 137.09 C 292.82 131.50 300.45 127.95 307.33 123.33 C 322.77 112.83 338.74 103.13 355.01 93.97 Z" />
<path fill="#bc9b34" d=" M 82.30 92.33 C 82.84 92.83 82.84 92.83 82.30 92.33 Z" />
<path fill="#cda74d" d=" M 211.14 92.40 C 214.46 92.66 209.50 95.33 211.14 92.40 Z" />
<path fill="#c6a343" d=" M 141.13 93.35 C 144.46 93.47 139.62 96.35 141.13 93.35 Z" />
<path fill="#ddb366" d=" M 80.18 94.22 C 81.80 93.69 82.33 94.24 81.78 95.88 C 80.15 96.42 79.62 95.86 80.18 94.22 Z" />
<path fill="#d0aa53" d=" M 192.23 94.28 C 192.73 94.78 192.73 94.78 192.23 94.28 Z" />
<path fill="#caa64a" d=" M 205.06 94.15 C 208.37 94.50 203.35 97.04 205.06 94.15 Z" />
<path fill="#c09e3a" d=" M 174.20 95.33 C 174.73 95.83 174.73 95.83 174.20 95.33 Z" />
<path fill="#d3ac56" d=" M 72.06 96.15 C 75.39 96.35 70.47 99.11 72.06 96.15 Z" />
<path fill="#dfb468" d=" M 149.17 96.38 C 150.50 95.41 151.91 97.75 150.76 98.71 C 149.42 99.69 148.02 97.34 149.17 96.38 Z" />
<path fill="#cea84f" d=" M 153.27 96.34 C 154.70 95.76 155.14 96.19 154.59 97.62 C 153.15 98.19 152.71 97.76 153.27 96.34 Z" />
<path fill="#c09e3a" d=" M 185.33 96.24 C 185.88 96.71 185.88 96.71 185.33 96.24 Z" />
<path fill="#dbb162" d=" M 169.21 97.14 C 170.89 97.19 170.42 99.92 168.97 99.99 C 167.28 99.93 167.76 97.23 169.21 97.14 Z" />
<path fill="#c8a447" d=" M 156.15 98.18 C 159.47 98.29 154.62 101.18 156.15 98.18 Z" />
<path fill="#d0aa53" d=" M 163.33 99.27 C 163.86 99.74 163.86 99.74 163.33 99.27 Z" />
<path fill="#dcb264" d=" M 201.20 99.21 C 202.82 98.64 203.37 99.17 202.85 100.81 C 201.22 101.38 200.67 100.85 201.20 99.21 Z" />
<path fill="#c09e3a" d=" M 219.28 99.16 C 219.74 99.73 219.74 99.73 219.28 99.16 Z" />
<path fill="#d1aa53" d=" M 66.07 100.13 C 69.40 99.97 64.81 103.25 66.07 100.13 Z" />
<path fill="#d5ad5a" d=" M 72.14 100.49 C 73.51 100.63 73.74 101.31 72.85 102.53 C 71.48 102.39 71.24 101.71 72.14 100.49 Z" />
<path fill="#d7af5d" d=" M 74.19 101.97 C 77.20 100.49 74.26 105.31 74.19 101.97 Z" />
<path fill="#d6ae5c" d=" M 213.08 102.22 C 214.49 101.92 214.96 102.46 214.50 103.82 C 213.08 104.12 212.61 103.58 213.08 102.22 Z" />
<path fill="#dfb569" d=" M 219.18 102.17 C 220.59 102.23 220.51 104.66 219.13 104.71 C 217.72 104.63 217.80 102.23 219.18 102.17 Z" />
<path fill="#cca74d" d=" M 68.21 105.28 C 68.75 105.74 68.75 105.74 68.21 105.28 Z" />
<path fill="#ddb366" d=" M 215.28 107.18 C 218.26 105.65 215.42 110.52 215.28 107.18 Z" />
<path fill="#cba64a" d=" M 65.09 108.16 C 68.42 108.23 63.61 111.17 65.09 108.16 Z" />
<path fill="#deb468" d=" M 70.23 108.41 C 71.63 108.00 72.13 108.49 71.73 109.88 C 70.33 110.29 69.83 109.80 70.23 108.41 Z" />
<path fill="#cca74d" d=" M 223.35 109.23 C 223.86 109.74 223.86 109.74 223.35 109.23 Z" />
<path fill="#dab162" d=" M 219.43 114.03 C 220.84 113.68 221.31 114.20 220.85 115.58 C 219.44 115.93 218.96 115.41 219.43 114.03 Z" />
<path fill="#d7af5e" d=" M 64.21 115.46 C 65.60 115.01 66.11 115.48 65.74 116.88 C 64.34 117.33 63.83 116.86 64.21 115.46 Z" />
<path fill="#d0aa53" d=" M 215.32 116.24 C 215.81 116.76 215.81 116.76 215.32 116.24 Z" />
<path fill="#d0aa53" d=" M 61.24 117.27 C 61.76 117.76 61.76 117.76 61.24 117.27 Z" />
<path fill="#d1aa53" d=" M 218.13 117.11 C 221.46 117.21 216.63 120.12 218.13 117.11 Z" />
<path fill="#eccfac" d=" M 0.00 117.75 C 15.94 125.21 32.33 131.65 48.58 138.38 C 48.31 139.64 48.05 140.90 47.78 142.16 C 31.77 135.88 16.00 129.01 0.00 122.70 L 0.00 117.75 Z" />
<path fill="#fbe4ed" d=" M 302.46 128.46 C 307.71 124.93 313.49 122.35 319.52 120.48 C 319.76 120.99 320.25 122.00 320.50 122.51 C 321.35 122.55 322.19 122.60 323.05 122.64 C 324.10 127.40 325.55 132.12 325.84 137.00 C 323.76 143.23 317.08 145.97 311.64 148.65 C 304.83 152.16 296.97 153.64 290.82 158.36 C 287.57 160.12 283.91 160.74 280.41 161.79 C 263.51 169.11 245.92 174.76 228.65 181.11 C 229.27 178.54 229.88 175.96 230.48 173.37 C 249.64 161.98 267.52 148.56 286.63 137.09 C 292.45 135.31 297.11 131.22 302.46 128.46 Z" />
<path fill="#cda74d" d=" M 223.07 121.41 C 226.40 121.48 221.60 124.44 223.07 121.41 Z" />
<path fill="#edc98e" d=" M 279.12 166.12 C 319.55 151.47 359.84 136.43 400.00 121.07 L 400.00 124.76 C 370.89 135.82 341.59 146.38 312.62 157.81 C 300.01 162.51 287.17 166.66 274.86 172.13 C 271.15 173.66 267.57 175.91 265.39 179.38 C 263.31 182.53 260.36 185.05 258.70 188.48 C 252.15 188.00 245.62 189.13 239.29 190.72 C 236.34 187.19 231.63 186.13 227.22 186.53 C 227.49 185.52 227.76 184.51 228.03 183.51 C 230.20 183.50 232.37 183.18 234.39 182.34 C 249.19 176.63 264.30 171.78 279.12 166.12 Z" />
<path fill="#e5c173" d=" M 0.00 122.70 C 16.00 129.01 31.77 135.88 47.78 142.16 C 47.48 143.61 47.19 145.07 46.90 146.53 C 42.41 143.65 35.77 142.57 31.68 146.69 C 26.06 152.17 24.35 160.33 23.31 167.82 C 15.57 166.42 7.78 165.38 0.00 164.28 L 0.00 122.70 Z" />
<path fill="#c09e3a" d=" M 218.18 125.29 C 218.67 125.82 218.67 125.82 218.18 125.29 Z" />
<path fill="#e6c275" d=" M 312.62 157.81 C 341.59 146.38 370.89 135.82 400.00 124.76 L 400.00 167.92 C 382.44 170.83 364.67 172.11 347.02 174.30 C 337.12 175.63 327.05 175.72 317.27 177.85 C 313.66 175.24 309.85 172.82 305.68 171.21 C 302.02 169.62 297.96 171.01 294.15 170.21 C 287.56 168.92 281.41 172.48 274.86 172.13 C 287.17 166.66 300.01 162.51 312.62 157.81 Z" />
<path fill="#caa64a" d=" M 61.18 127.18 C 64.50 127.40 59.56 130.13 61.18 127.18 Z" />
<path fill="#cca74d" d=" M 220.26 130.30 C 220.76 130.81 220.76 130.81 220.26 130.30 Z" />
<path fill="#cfa951" d=" M 225.27 129.95 C 226.53 130.60 226.50 131.29 225.18 132.03 C 223.92 131.39 223.95 130.70 225.27 129.95 Z" />
<path fill="#cfa950" d=" M 60.16 132.15 C 63.15 130.61 60.29 135.48 60.16 132.15 Z" />
<path fill="#ddb366" d=" M 220.13 134.13 C 221.53 133.66 222.01 134.14 221.56 135.55 C 220.16 136.01 219.68 135.54 220.13 134.13 Z" />
<path fill="#dfb56a" d=" M 223.03 134.23 C 226.37 134.36 221.50 137.21 223.03 134.23 Z" />
<path fill="#e2b76e" d=" M 229.20 135.27 C 230.62 135.33 230.54 137.76 229.15 137.79 C 227.72 137.73 227.80 135.30 229.20 135.27 Z" />
<path fill="#cda74d" d=" M 57.12 136.39 C 58.52 135.99 59.05 136.48 58.73 137.87 C 57.33 138.27 56.79 137.78 57.12 136.39 Z" />
<path fill="#e2b76e" d=" M 55.12 140.20 C 56.75 139.66 57.30 140.20 56.77 141.83 C 55.14 142.37 54.59 141.83 55.12 140.20 Z" />
<path fill="#bc9b34" d=" M 225.32 140.30 C 225.84 140.81 225.84 140.81 225.32 140.30 Z" />
<path fill="#735308" d=" M 71.56 142.53 C 77.73 138.93 85.13 140.80 91.57 142.57 C 100.63 145.21 110.04 147.82 119.56 146.47 C 123.32 145.96 126.87 144.32 130.70 144.23 C 131.97 146.52 130.98 149.13 130.71 151.54 C 127.33 153.35 124.02 155.52 120.16 156.11 C 111.83 157.59 103.38 156.06 95.07 155.18 C 88.69 154.58 82.48 152.37 76.02 152.71 C 74.12 152.61 72.66 153.93 71.12 154.80 L 70.83 154.97 C 70.16 154.94 68.81 154.89 68.14 154.86 C 71.53 149.42 78.51 149.68 84.04 150.74 C 92.62 152.51 101.32 153.54 110.05 154.17 C 115.58 154.46 121.41 154.02 126.39 151.37 C 128.08 150.61 128.43 148.64 129.19 147.13 C 123.21 148.38 117.15 149.82 110.99 149.21 C 101.81 148.78 93.22 145.26 84.30 143.46 C 79.39 142.48 73.46 142.86 70.12 147.09 C 67.81 149.22 67.67 152.44 67.69 155.37 C 67.27 155.64 66.41 156.17 65.99 156.43 C 63.64 151.24 67.12 145.32 71.56 142.53 Z" />
<path fill="#cca74d" d=" M 221.22 142.27 C 221.71 142.78 221.71 142.78 221.22 142.27 Z" />
<path fill="#cca74d" d=" M 57.22 143.32 C 57.78 143.77 57.78 143.77 57.22 143.32 Z" />
<path fill="#c09e3a" d=" M 59.33 143.32 C 59.84 143.84 59.84 143.84 59.33 143.32 Z" />
<path fill="#937328" d=" M 70.12 147.09 C 73.46 142.86 79.39 142.48 84.30 143.46 C 93.22 145.26 101.81 148.78 110.99 149.21 C 117.15 149.82 123.21 148.38 129.19 147.13 C 128.43 148.64 128.08 150.61 126.39 151.37 C 121.41 154.02 115.58 154.46 110.05 154.17 C 101.32 153.54 92.62 152.51 84.04 150.74 C 78.51 149.68 71.53 149.42 68.14 154.86 L 67.69 155.37 C 67.67 152.44 67.81 149.22 70.12 147.09 Z" />
<path fill="#735308" d=" M 161.88 143.85 C 168.64 144.57 175.25 142.33 182.00 142.48 C 189.34 142.42 197.36 143.05 203.33 147.78 C 207.90 151.21 211.43 156.32 212.11 162.08 C 212.39 166.47 211.34 170.82 210.22 175.03 C 208.73 175.72 207.27 177.27 205.51 176.58 C 203.71 173.38 205.22 169.45 203.77 166.10 C 202.34 162.57 200.01 159.00 196.25 157.69 C 182.12 151.32 165.98 156.33 151.49 151.52 C 149.93 148.99 150.69 146.07 151.93 143.61 C 155.25 143.43 158.57 143.54 161.88 143.85 Z" />
<path fill="#c4a140" d=" M 226.25 144.21 C 226.77 144.70 226.77 144.70 226.25 144.21 Z" />
<path fill="#937328" d=" M 168.96 146.35 C 178.65 144.84 189.03 143.69 198.31 147.65 C 202.13 149.63 205.61 152.54 207.79 156.28 C 210.68 161.86 209.86 168.75 207.29 174.29 C 207.69 166.98 204.64 158.44 197.31 155.65 C 184.20 148.93 168.91 153.29 155.08 149.87 C 153.36 149.81 152.37 147.78 153.50 146.42 C 158.59 145.26 163.81 147.25 168.96 146.35 Z" />
<path fill="#cda74d" d=" M 228.11 145.41 C 231.42 145.74 226.40 148.30 228.11 145.41 Z" />
<path fill="#c4a140" d=" M 222.06 146.29 C 225.38 146.49 220.47 149.25 222.06 146.29 Z" />
<path fill="#463030" d=" M 46.46 147.64 C 52.58 151.32 58.05 155.97 63.84 160.15 C 63.19 161.00 62.55 161.86 61.91 162.72 C 58.29 160.06 54.69 157.39 51.03 154.79 C 50.69 156.21 50.35 157.64 50.05 159.07 C 50.24 157.11 50.50 155.15 50.82 153.21 C 49.01 151.66 46.36 150.42 46.46 147.64 Z" />
<path fill="#d4ad59" d=" M 57.41 148.14 C 58.80 147.75 59.29 148.26 58.89 149.67 C 57.51 150.05 57.01 149.53 57.41 148.14 Z" />
<path fill="#ffcc99" d=" M 36.39 149.43 C 39.87 147.90 43.10 150.45 46.01 152.04 C 45.49 155.00 44.96 157.96 44.50 160.93 C 42.91 157.35 39.23 154.98 35.28 155.30 C 33.71 157.10 36.69 158.07 37.98 158.47 C 41.82 159.65 44.16 164.01 43.17 167.86 C 42.16 172.21 41.29 176.58 40.43 180.96 C 39.39 183.96 37.19 186.85 38.17 190.22 C 39.16 194.17 37.85 198.15 37.75 202.12 C 37.45 204.23 37.92 206.61 36.62 208.45 C 34.15 204.75 32.54 200.42 32.57 195.93 C 32.92 187.99 29.07 180.75 28.05 173.02 C 28.07 168.09 29.13 163.24 30.38 158.49 C 31.26 154.93 33.24 151.44 36.39 149.43 Z" />
<path fill="#c09e3a" d=" M 223.22 151.04 C 226.23 149.54 223.33 154.36 223.22 151.04 Z" />
<path fill="#c6a343" d=" M 226.15 153.31 C 229.47 153.53 224.56 156.27 226.15 153.31 Z" />
<path fill="#ffcc99" d=" M 51.03 154.79 C 54.69 157.39 58.29 160.06 61.91 162.72 C 63.08 163.56 63.27 164.71 62.49 166.16 C 61.46 170.50 60.53 174.89 60.05 179.34 C 59.97 181.81 59.64 184.59 61.25 186.69 C 63.71 190.16 67.79 191.96 71.70 193.26 C 81.22 196.43 91.06 198.56 100.94 200.24 C 105.14 200.99 109.44 201.32 113.68 200.72 C 114.42 200.51 115.91 200.09 116.65 199.89 C 116.17 204.52 114.45 208.83 112.51 213.01 L 112.84 214.25 C 115.53 215.80 116.81 212.85 117.97 210.97 C 120.27 206.71 119.93 201.65 121.43 197.12 C 123.24 190.35 127.52 184.32 127.80 177.16 C 128.40 177.06 129.61 176.85 130.21 176.75 C 133.93 177.20 137.58 178.10 141.16 179.20 C 138.43 185.15 140.00 191.76 139.23 198.04 C 138.62 205.15 134.48 211.91 136.20 219.18 C 135.99 220.94 137.79 221.07 139.05 221.43 C 140.87 220.08 139.86 217.76 139.94 215.89 C 139.62 212.49 140.93 209.26 141.78 206.04 C 147.43 210.44 154.47 212.12 161.30 213.72 C 169.72 216.03 178.35 217.63 187.02 218.64 C 191.61 219.03 197.58 218.67 199.99 214.05 C 202.36 208.95 203.55 203.39 204.70 197.91 C 204.85 197.25 205.15 195.95 205.30 195.29 C 205.69 195.20 206.47 195.02 206.87 194.93 C 210.07 194.27 213.30 193.70 216.45 192.81 C 217.74 192.52 219.03 192.24 220.33 191.99 C 216.48 203.75 215.13 216.13 211.18 227.86 C 209.99 231.49 208.89 235.14 207.85 238.81 C 207.30 238.67 206.21 238.38 205.67 238.24 C 206.13 238.56 207.07 239.20 207.53 239.53 C 205.09 245.64 202.47 251.67 199.71 257.65 C 199.27 257.58 198.40 257.44 197.97 257.38 C 198.26 257.60 198.83 258.06 199.12 258.28 C 198.81 259.12 198.20 260.80 197.90 261.63 C 197.44 260.96 197.00 260.29 196.56 259.62 L 197.13 262.72 L 194.55 261.50 C 195.27 261.98 196.00 262.47 196.72 262.97 C 193.41 268.90 187.74 272.71 182.58 276.85 C 181.38 277.26 181.01 275.80 180.16 275.39 C 179.49 276.68 179.88 278.63 178.23 279.27 C 173.17 282.56 167.79 285.33 162.82 288.76 C 162.37 287.95 161.93 287.14 161.49 286.34 C 160.99 287.11 159.97 288.64 159.46 289.41 C 160.12 289.15 161.44 288.65 162.11 288.40 C 155.69 293.71 148.33 297.86 142.01 303.30 C 141.18 302.72 140.36 302.13 139.54 301.55 C 139.43 302.50 139.87 303.32 140.35 304.12 C 137.36 305.49 134.33 306.80 131.16 307.73 C 131.23 307.02 131.36 305.60 131.43 304.88 C 131.10 305.87 130.77 306.86 130.46 307.86 C 126.40 308.06 122.34 308.04 118.29 307.88 C 118.34 307.36 118.45 306.30 118.50 305.77 C 118.24 306.21 117.73 307.08 117.48 307.52 C 114.30 306.83 111.09 306.30 107.88 305.73 C 107.53 304.73 107.14 303.76 106.58 302.86 C 106.81 303.57 107.26 305.01 107.49 305.72 C 106.49 305.51 104.48 305.08 103.47 304.86 C 103.19 303.87 102.91 302.89 102.61 301.92 C 102.67 302.57 102.77 303.86 102.82 304.50 C 100.82 303.94 98.82 303.22 96.72 303.27 C 96.76 301.85 96.83 300.43 96.91 299.02 L 96.13 300.67 L 94.95 299.52 C 95.38 300.51 95.81 301.56 95.48 302.66 C 89.67 300.95 84.21 298.10 79.58 294.18 C 80.16 293.25 80.74 292.32 81.30 291.40 C 80.33 291.81 79.36 292.23 78.39 292.65 C 73.33 286.12 70.00 278.54 65.77 271.52 L 64.43 271.00 C 65.17 270.20 67.24 269.80 66.66 268.40 C 65.63 267.95 64.77 268.93 63.92 269.33 C 60.16 262.69 55.54 256.57 51.47 250.12 C 51.99 249.46 52.42 248.77 52.78 248.04 L 52.52 247.44 L 51.84 246.97 C 51.24 247.46 50.65 247.97 50.07 248.49 C 48.50 244.32 45.79 240.68 44.37 236.45 C 43.19 232.84 42.90 229.02 42.33 225.28 L 44.31 225.23 C 43.84 225.04 42.91 224.66 42.45 224.47 C 42.37 222.85 42.28 221.24 42.19 219.63 C 43.57 219.37 44.40 218.25 45.27 217.29 C 44.54 217.79 43.07 218.79 42.34 219.30 C 42.20 216.55 42.02 213.80 41.77 211.06 C 42.22 211.00 43.11 210.88 43.56 210.83 L 43.24 212.94 C 43.71 212.18 44.20 211.43 44.69 210.68 C 43.88 210.11 43.02 209.61 42.20 209.07 C 42.91 199.99 43.80 190.91 45.46 181.95 C 46.80 174.28 48.83 166.76 50.05 159.07 C 50.35 157.64 50.69 156.21 51.03 154.79 Z" />
<path fill="#3c2929" d=" M 70.83 154.97 L 71.12 154.80 C 76.36 155.25 81.64 155.83 86.68 157.44 C 97.36 160.59 108.25 163.02 118.84 166.49 C 118.72 166.73 118.47 167.21 118.35 167.45 C 121.12 168.93 124.96 170.39 124.86 174.17 C 124.52 181.08 122.33 187.81 120.39 194.42 C 119.54 197.63 116.20 198.73 113.44 199.76 C 113.50 200.00 113.62 200.48 113.68 200.72 C 109.44 201.32 105.14 200.99 100.94 200.24 C 91.06 198.56 81.22 196.43 71.70 193.26 C 72.03 193.12 72.68 192.85 73.01 192.72 C 69.71 191.23 66.09 190.11 63.46 187.51 C 61.25 185.37 60.79 182.17 60.05 179.34 C 60.53 174.89 61.46 170.50 62.49 166.16 C 62.74 166.24 63.24 166.42 63.49 166.50 C 63.96 164.10 64.37 161.65 65.36 159.39 C 66.25 157.02 68.94 156.33 70.83 154.97 Z" />
<path fill="#ffcc99" d=" M 69.20 160.06 C 75.12 158.86 81.33 160.05 87.09 161.64 C 83.61 162.27 79.74 162.44 76.91 164.85 C 74.52 166.96 72.32 169.36 70.71 172.12 C 73.33 179.58 81.23 182.41 88.11 184.54 C 92.03 185.52 96.00 186.26 99.97 186.99 C 106.41 188.15 112.95 187.23 119.42 186.87 C 118.44 190.03 118.15 194.21 114.68 195.73 C 110.86 197.45 106.48 196.77 102.44 196.41 C 92.85 194.77 83.31 192.70 74.03 189.74 C 69.85 188.28 64.70 185.99 64.02 181.05 C 64.14 177.66 64.92 174.34 65.41 171.00 C 66.26 167.28 66.39 162.96 69.20 160.06 Z" />
<path fill="#000000" d=" M 87.09 161.64 C 91.89 161.05 96.35 163.61 100.98 164.46 C 103.76 165.42 107.13 165.39 109.32 167.58 C 100.24 165.01 90.83 163.92 81.40 164.23 C 79.75 165.55 78.10 166.88 76.48 168.25 C 85.28 169.73 94.23 170.66 102.77 173.36 C 102.17 174.05 101.56 174.74 100.95 175.42 C 102.06 175.01 103.16 174.59 104.27 174.17 C 109.82 174.01 114.95 176.75 120.31 177.86 C 118.98 175.23 117.94 172.25 115.61 170.30 C 113.98 169.17 112.06 168.56 110.24 167.81 L 109.34 166.92 C 113.45 167.54 117.50 168.98 120.93 171.35 C 123.08 173.04 122.83 176.09 122.35 178.49 C 121.40 183.05 120.46 187.64 118.98 192.06 C 118.14 195.12 115.23 197.38 112.09 197.60 C 108.82 197.87 105.54 197.63 102.27 197.54 L 102.44 196.41 C 106.48 196.77 110.86 197.45 114.68 195.73 C 118.15 194.21 118.44 190.03 119.42 186.87 C 112.95 187.23 106.41 188.15 99.97 186.99 C 96.00 186.26 92.03 185.52 88.11 184.54 C 81.23 182.41 73.33 179.58 70.71 172.12 C 72.32 169.36 74.52 166.96 76.91 164.85 C 79.74 162.44 83.61 162.27 87.09 161.64 Z" />
<path fill="#dab162" d=" M 222.15 162.15 C 223.43 162.79 223.43 163.47 222.13 164.22 C 220.84 163.58 220.85 162.89 222.15 162.15 Z" />
<path fill="#ebcda6" d=" M 0.00 164.28 C 7.78 165.38 15.57 166.42 23.31 167.82 C 23.24 168.69 23.10 170.42 23.03 171.29 C 15.37 170.16 7.71 168.94 0.00 168.20 L 0.00 164.28 Z" />
<path fill="#ffcc99" d=" M 81.40 164.23 C 90.83 163.92 100.24 165.01 109.32 167.58 L 110.24 167.81 C 112.06 168.56 113.98 169.17 115.61 170.30 C 117.94 172.25 118.98 175.23 120.31 177.86 C 114.95 176.75 109.82 174.01 104.27 174.17 C 103.16 174.59 102.06 175.01 100.95 175.42 C 101.56 174.74 102.17 174.05 102.77 173.36 C 94.23 170.66 85.28 169.73 76.48 168.25 C 78.10 166.88 79.75 165.55 81.40 164.23 Z" />
<path fill="#000000" d=" M 118.35 167.45 C 118.47 167.21 118.72 166.73 118.84 166.49 C 121.76 167.73 124.46 169.57 126.01 172.42 C 130.67 172.41 135.43 172.60 139.83 174.31 C 134.99 174.46 130.24 173.06 125.39 173.57 C 126.18 174.77 126.98 175.97 127.80 177.16 C 127.52 184.32 123.24 190.35 121.43 197.12 C 119.93 201.65 120.27 206.71 117.97 210.97 C 116.81 212.85 115.53 215.80 112.84 214.25 L 112.51 213.01 C 114.45 208.83 116.17 204.52 116.65 199.89 C 115.91 200.09 114.42 200.51 113.68 200.72 C 113.62 200.48 113.50 200.00 113.44 199.76 C 116.20 198.73 119.54 197.63 120.39 194.42 C 122.33 187.81 124.52 181.08 124.86 174.17 C 124.96 170.39 121.12 168.93 118.35 167.45 Z" />
<path fill="#f5ddd8" d=" M 0.00 168.20 C 7.71 168.94 15.37 170.16 23.03 171.29 C 22.28 178.89 27.54 185.41 27.44 192.95 C 27.69 200.17 28.93 208.35 34.87 213.21 C 30.82 215.77 25.93 215.25 21.38 215.69 C 14.25 216.23 7.17 217.74 0.00 217.17 L 0.00 168.20 Z" />
<path fill="#eacb9b" d=" M 347.02 174.30 C 364.67 172.11 382.44 170.83 400.00 167.92 L 400.00 173.00 C 383.88 173.66 367.91 176.08 351.87 177.66 C 341.48 179.00 331.02 179.70 320.68 181.41 C 319.60 180.17 318.45 178.99 317.27 177.85 C 327.05 175.72 337.12 175.63 347.02 174.30 Z" />
<path fill="#ffffff" d=" M 75.19 172.24 C 76.09 171.29 77.05 170.41 78.07 169.61 C 81.58 169.94 85.04 170.65 88.53 171.09 C 87.69 174.07 87.55 177.18 88.10 180.23 C 83.20 178.84 77.75 177.03 75.19 172.24 Z" />
<path fill="#465d6f" d=" M 89.91 171.54 C 91.77 171.84 93.64 172.15 95.51 172.45 C 93.38 175.69 95.48 181.39 99.86 180.45 C 103.11 180.39 103.67 176.88 104.57 174.50 C 106.14 175.33 108.80 174.99 109.62 176.83 C 109.23 179.13 108.33 181.37 106.87 183.21 C 101.21 183.97 95.62 181.71 90.07 180.78 C 89.05 177.76 89.21 174.60 89.91 171.54 Z" />
<path fill="#594735" d=" M 120.11 172.30 C 121.56 172.09 122.55 174.51 121.82 175.63 C 120.40 175.77 119.45 173.42 120.11 172.30 Z" />
<path fill="#be9d37" d=" M 220.32 173.08 C 223.32 171.55 220.47 176.40 220.32 173.08 Z" />
<path fill="#f3dbd3" d=" M 351.87 177.66 C 367.91 176.08 383.88 173.66 400.00 173.00 L 400.00 227.42 C 378.82 225.18 357.71 222.29 336.67 218.98 C 336.39 217.99 336.09 217.00 335.79 216.02 C 342.39 216.17 348.94 217.41 355.55 216.93 C 355.80 216.32 356.31 215.10 356.56 214.49 C 358.93 214.70 361.30 214.89 363.68 215.07 C 365.61 205.14 365.16 194.98 364.93 184.93 C 362.80 185.13 360.67 185.33 358.55 185.48 C 355.44 181.69 350.23 183.15 345.98 182.89 C 338.18 182.66 330.47 184.04 322.68 184.20 C 322.06 183.24 321.38 182.31 320.68 181.41 C 331.02 179.70 341.48 179.00 351.87 177.66 Z" />
<path fill="#463030" d=" M 125.39 173.57 C 130.24 173.06 134.99 174.46 139.83 174.31 C 141.44 174.84 143.04 175.38 144.64 175.92 C 148.82 173.70 153.69 174.06 158.22 174.66 C 168.47 176.55 178.77 178.19 189.03 180.00 C 193.66 180.94 198.32 182.15 202.54 184.32 C 204.17 185.04 205.22 186.53 205.79 188.18 C 204.95 191.34 204.07 194.61 204.70 197.91 C 203.55 203.39 202.36 208.95 199.99 214.05 C 197.58 218.67 191.61 219.03 187.02 218.64 C 178.35 217.63 169.72 216.03 161.30 213.72 C 157.37 210.68 152.05 210.83 147.82 208.36 C 144.23 206.56 140.06 203.62 140.53 199.05 C 141.11 191.24 142.91 183.51 145.84 176.25 C 145.04 177.15 144.24 178.04 143.44 178.94 C 139.16 177.67 134.76 175.51 130.21 176.75 C 129.61 176.85 128.40 177.06 127.80 177.16 C 126.98 175.97 126.18 174.77 125.39 173.57 Z" />
<path fill="#ffcc99" d=" M 277.24 178.38 C 281.38 175.96 286.05 173.86 290.96 174.16 C 289.19 175.24 286.71 175.80 286.01 178.02 C 284.71 181.63 282.98 185.14 282.21 188.90 C 279.20 191.33 275.36 192.87 273.24 196.26 C 272.52 195.32 271.12 194.40 271.75 193.01 C 272.86 187.96 272.84 181.89 277.24 178.38 Z" />
<path fill="#ffcc99" d=" M 291.43 178.40 C 295.42 176.07 300.20 172.76 304.94 175.04 C 309.24 177.22 313.66 179.63 316.74 183.44 C 318.94 186.69 318.33 190.90 319.50 194.47 C 320.64 195.60 321.92 194.58 323.06 194.04 C 325.09 198.69 327.26 203.30 328.73 208.17 C 331.38 216.27 334.78 224.37 334.77 233.05 C 329.17 232.87 323.58 232.37 317.99 231.99 C 309.28 231.06 300.73 229.00 292.01 228.14 C 291.65 228.59 290.92 229.49 290.55 229.94 C 290.29 229.58 289.78 228.86 289.53 228.50 C 286.28 227.80 282.77 227.86 279.80 226.21 C 276.91 224.38 274.83 221.49 273.41 218.43 C 271.93 215.83 272.98 212.77 272.96 209.96 C 272.89 205.40 275.29 201.35 277.58 197.58 C 280.13 195.44 282.96 193.66 285.65 191.70 C 286.98 190.96 288.66 189.46 290.17 190.69 C 293.26 193.74 295.22 199.37 292.00 203.05 C 290.37 205.85 286.95 205.74 284.30 206.85 C 284.25 207.53 284.16 208.88 284.11 209.56 C 281.47 211.07 283.29 214.39 286.02 213.55 C 289.58 214.36 289.16 209.75 291.72 208.70 C 295.65 206.76 297.10 202.28 297.94 198.28 C 302.45 195.92 306.65 192.89 311.58 191.40 C 313.40 187.91 308.17 189.67 306.71 190.71 C 305.33 188.96 304.24 187.01 304.18 184.74 C 302.75 184.39 301.31 184.08 299.88 183.80 C 299.56 183.41 298.94 182.62 298.63 182.22 C 298.06 182.25 296.94 182.29 296.38 182.32 C 294.98 184.78 294.97 187.56 295.46 190.29 C 293.45 188.04 291.02 185.93 287.80 186.02 C 288.41 183.32 288.49 179.70 291.43 178.40 Z" />
<path fill="#000000" d=" M 130.21 176.75 C 134.76 175.51 139.16 177.67 143.44 178.94 C 144.24 178.04 145.04 177.15 145.84 176.25 C 142.91 183.51 141.11 191.24 140.53 199.05 C 140.06 203.62 144.23 206.56 147.82 208.36 C 152.05 210.83 157.37 210.68 161.30 213.72 C 154.47 212.12 147.43 210.44 141.78 206.04 C 140.93 209.26 139.62 212.49 139.94 215.89 C 139.86 217.76 140.87 220.08 139.05 221.43 C 137.79 221.07 135.99 220.94 136.20 219.18 C 134.48 211.91 138.62 205.15 139.23 198.04 C 140.00 191.76 138.43 185.15 141.16 179.20 C 137.58 178.10 133.93 177.20 130.21 176.75 Z" />
<path fill="#ffffff" d=" M 110.98 176.26 C 113.39 176.97 115.78 177.71 118.16 178.49 C 118.37 179.93 118.59 181.37 118.83 182.81 C 115.34 182.37 111.94 183.56 108.47 183.72 C 109.64 181.36 110.54 178.86 110.98 176.26 Z" />
<path fill="#000000" d=" M 148.83 177.78 C 154.19 176.85 159.64 177.86 164.92 178.87 C 166.39 179.25 168.31 179.06 169.18 180.59 C 165.12 179.99 161.11 178.96 157.00 178.74 C 153.02 178.54 150.16 181.78 147.38 184.13 C 162.26 186.25 176.98 189.43 191.38 193.76 C 190.16 191.12 188.85 188.19 186.08 186.85 C 180.98 184.36 175.50 182.73 170.17 180.81 L 169.10 180.04 C 174.12 180.38 179.07 181.38 183.98 182.42 C 184.25 182.72 184.80 183.30 185.08 183.59 C 183.99 183.42 182.90 183.27 181.82 183.13 C 185.17 184.43 188.88 185.79 190.86 189.03 C 192.83 192.27 194.57 195.92 194.75 199.77 C 191.67 202.13 188.05 204.29 184.04 204.27 C 174.18 204.75 164.45 202.19 155.34 198.61 C 151.29 197.20 148.14 194.10 144.12 192.64 C 144.05 193.38 143.90 194.86 143.83 195.60 C 142.41 192.43 144.12 189.01 144.63 185.82 C 145.55 183.04 145.64 179.00 148.83 177.78 Z" />
<path fill="#cea950" d=" M 221.10 177.24 C 224.43 177.51 219.47 180.17 221.10 177.24 Z" />
<path fill="#c8a447" d=" M 216.32 178.15 C 219.29 176.58 216.49 181.48 216.32 178.15 Z" />
<path fill="#ffcc99" d=" M 264.51 189.88 C 265.64 185.32 268.59 181.36 271.83 178.03 C 269.25 183.00 268.13 188.56 267.49 194.07 C 267.65 196.72 269.64 198.72 271.84 199.95 C 271.35 201.07 270.86 202.19 270.38 203.32 C 267.89 199.12 264.83 194.94 264.51 189.88 Z" />
<path fill="#ffcc99" d=" M 148.43 178.78 C 151.23 177.69 148.81 182.13 147.20 181.53 C 146.95 180.40 147.36 179.48 148.43 178.78 Z" />
<path fill="#ffcc99" d=" M 147.38 184.13 C 150.16 181.78 153.02 178.54 157.00 178.74 C 161.11 178.96 165.12 179.99 169.18 180.59 L 170.17 180.81 C 175.50 182.73 180.98 184.36 186.08 186.85 C 188.85 188.19 190.16 191.12 191.38 193.76 C 176.98 189.43 162.26 186.25 147.38 184.13 Z" />
<path fill="#000000" d=" M 60.05 179.34 C 60.79 182.17 61.25 185.37 63.46 187.51 C 66.09 190.11 69.71 191.23 73.01 192.72 C 72.68 192.85 72.03 193.12 71.70 193.26 C 67.79 191.96 63.71 190.16 61.25 186.69 C 59.64 184.59 59.97 181.81 60.05 179.34 Z" />
<path fill="#ffcc99" d=" M 181.82 183.13 C 182.90 183.27 183.99 183.42 185.08 183.59 C 189.89 184.53 194.72 185.68 199.19 187.75 C 201.33 188.43 202.46 190.88 201.85 192.99 C 200.66 198.74 199.24 204.50 197.23 210.03 C 196.06 213.34 192.24 214.54 189.02 214.36 C 180.76 214.28 172.66 212.29 164.62 210.56 C 157.97 208.70 150.32 207.92 145.27 202.70 C 143.21 200.92 143.72 198.00 143.83 195.60 C 143.90 194.86 144.05 193.38 144.12 192.64 C 148.14 194.10 151.29 197.20 155.34 198.61 C 164.45 202.19 174.18 204.75 184.04 204.27 C 188.05 204.29 191.67 202.13 194.75 199.77 C 194.57 195.92 192.83 192.27 190.86 189.03 C 188.88 185.79 185.17 184.43 181.82 183.13 Z" />
<path fill="#f6e0df" d=" M 322.68 184.20 C 330.47 184.04 338.18 182.66 345.98 182.89 C 350.23 183.15 355.44 181.69 358.55 185.48 C 360.67 185.33 362.80 185.13 364.93 184.93 C 365.16 194.98 365.61 205.14 363.68 215.07 C 361.30 214.89 358.93 214.70 356.56 214.49 C 356.31 215.10 355.80 216.32 355.55 216.93 C 348.94 217.41 342.39 216.17 335.79 216.02 C 332.30 205.08 327.85 194.44 322.68 184.20 Z" />
<path fill="#d9b060" d=" M 219.38 185.06 C 222.35 183.49 219.55 188.39 219.38 185.06 Z" />
<path fill="#ffffff" d=" M 146.49 189.04 C 147.34 187.84 148.20 186.65 149.06 185.46 C 152.35 185.97 155.65 186.50 158.94 187.04 C 158.13 189.95 158.07 192.98 158.62 195.94 C 154.08 194.50 150.73 191.03 146.49 189.04 Z" />
<path fill="#513737" d=" M 216.45 188.64 C 216.46 187.73 216.48 186.83 216.51 185.93 C 216.62 186.51 216.86 187.68 216.98 188.27 C 217.24 188.28 217.78 188.32 218.04 188.34 C 220.94 188.96 223.84 188.25 226.71 187.80 C 225.01 191.81 219.36 189.95 216.45 192.81 C 213.30 193.70 210.07 194.27 206.87 194.93 C 206.67 194.46 206.28 193.51 206.08 193.03 C 206.78 192.12 207.47 191.22 208.17 190.31 C 210.91 189.68 213.67 189.11 216.45 188.64 Z" />
<path fill="#465d6f" d=" M 161.24 196.44 C 158.94 193.99 159.74 190.22 160.62 187.33 C 162.25 187.61 163.87 187.90 165.50 188.18 C 165.29 190.34 164.63 192.88 166.45 194.58 C 167.74 196.49 170.40 196.27 172.26 195.40 C 173.97 194.35 174.14 192.15 174.84 190.46 C 176.65 190.89 178.46 191.33 180.27 191.78 C 179.73 194.94 178.26 197.82 176.04 200.13 C 171.03 199.24 166.11 197.89 161.24 196.44 Z" />
<path fill="#f6d9c8" d=" M 239.29 190.72 C 245.62 189.13 252.15 188.00 258.70 188.48 C 258.34 189.68 257.99 190.89 257.65 192.10 C 252.11 192.25 246.57 192.82 241.23 194.32 C 240.63 193.09 239.96 191.90 239.29 190.72 Z" />
<path fill="#ffcc99" d=" M 299.78 187.90 C 300.96 189.51 302.15 191.12 303.33 192.73 C 301.36 193.87 299.31 194.88 297.15 195.60 C 298.47 193.20 299.39 190.62 299.78 187.90 Z" />
<path fill="#000000" d=" M 204.70 197.91 C 204.07 194.61 204.95 191.34 205.79 188.18 L 206.30 190.71 C 206.77 190.61 207.70 190.41 208.17 190.31 C 207.47 191.22 206.78 192.12 206.08 193.03 C 206.28 193.51 206.67 194.46 206.87 194.93 C 206.47 195.02 205.69 195.20 205.30 195.29 C 205.15 195.95 204.85 197.25 204.70 197.91 Z" />
<path fill="#ffcc99" d=" M 223.48 199.71 C 224.34 197.13 225.09 194.52 225.83 191.91 C 229.49 191.23 234.27 190.97 236.06 195.03 C 238.35 201.60 236.19 208.71 234.13 215.06 C 231.44 223.32 223.18 227.91 219.82 235.76 C 217.77 240.31 214.05 243.84 210.13 246.82 C 212.44 239.82 215.11 232.92 217.87 226.10 C 218.49 220.27 220.32 214.67 221.17 208.87 C 221.37 205.43 223.54 202.23 226.92 201.26 C 229.37 200.36 233.53 202.80 234.13 199.16 C 230.58 198.23 226.87 198.15 223.48 199.71 Z" />
<path fill="#fde6f4" d=" M 241.23 194.32 C 246.57 192.82 252.11 192.25 257.65 192.10 C 257.05 194.36 256.15 196.57 256.05 198.93 C 256.35 201.77 258.02 204.21 259.71 206.43 C 253.72 206.49 247.95 204.59 242.01 204.08 C 242.14 200.81 242.02 197.51 241.23 194.32 Z" />
<path fill="#ffffff" d=" M 177.97 200.25 C 179.75 197.80 180.96 195.02 181.50 192.04 C 183.95 192.81 186.45 193.42 188.85 194.34 C 189.48 195.50 189.82 196.77 190.28 198.00 C 186.69 200.71 182.21 200.38 177.97 200.25 Z" />
<path fill="#ffcc99" d=" M 260.56 199.56 C 259.80 198.15 260.68 196.77 261.30 195.52 C 263.65 199.76 265.82 204.11 268.74 207.99 C 268.80 208.44 268.92 209.32 268.98 209.77 C 266.19 206.35 261.71 204.11 260.56 199.56 Z" />
<path fill="#937328" d=" M 44.23 202.35 C 44.79 202.87 44.79 202.87 44.23 202.35 Z" />
<path fill="#b88552" d=" M 308.78 204.94 C 309.00 203.40 311.36 202.16 311.67 204.35 C 311.04 207.55 309.46 210.52 309.15 213.80 C 308.54 218.33 309.63 222.83 310.23 227.30 C 308.72 227.23 307.44 226.63 307.31 225.01 C 305.75 218.39 306.23 211.25 308.78 204.94 Z" />
<path fill="#f1d0a7" d=" M 242.01 204.08 C 247.95 204.59 253.72 206.49 259.71 206.43 C 261.25 208.17 262.94 209.78 264.66 211.36 C 256.79 211.32 249.12 209.15 241.41 207.85 C 241.64 206.60 241.84 205.34 242.01 204.08 Z" />
<path fill="#edc782" d=" M 239.56 214.80 C 240.29 212.51 240.91 210.20 241.41 207.85 C 249.12 209.15 256.79 211.32 264.66 211.36 C 265.89 212.33 267.20 213.21 268.49 214.10 C 268.18 219.65 271.90 224.26 275.50 228.06 C 269.89 227.18 264.84 224.52 259.60 222.50 C 252.93 219.89 246.37 217.02 239.56 214.80 Z" />
<path fill="#eed1b3" d=" M 34.87 213.21 C 36.52 214.55 37.52 216.42 37.30 218.60 C 30.17 219.14 23.10 220.22 15.99 220.97 C 10.66 221.62 5.25 221.71 0.00 222.94 L 0.00 217.17 C 7.17 217.74 14.25 216.23 21.38 215.69 C 25.93 215.25 30.82 215.77 34.87 213.21 Z" />
<path fill="#937328" d=" M 48.39 213.23 C 50.78 212.45 49.79 216.44 47.95 216.19 C 46.38 215.86 47.31 213.61 48.39 213.23 Z" />
<path fill="#f4d5bb" d=" M 239.56 214.80 C 246.37 217.02 252.93 219.89 259.60 222.50 C 264.84 224.52 269.89 227.18 275.50 228.06 C 277.85 230.26 280.94 231.27 284.08 231.72 C 287.18 231.81 288.16 235.17 289.84 237.21 C 289.83 238.28 289.83 239.35 289.83 240.42 C 288.32 239.67 286.79 238.98 285.21 238.42 C 283.66 236.93 281.70 236.02 279.73 235.23 C 265.92 229.45 252.07 223.73 238.04 218.51 C 238.57 217.28 239.09 216.05 239.56 214.80 Z" />
<path fill="#000000" d=" M 100.50 222.50 C 101.79 220.78 102.18 217.40 105.03 218.01 C 105.43 218.48 106.23 219.41 106.62 219.88 C 105.29 222.50 103.44 225.01 102.99 227.99 C 102.76 229.87 104.17 231.23 105.15 232.64 C 106.53 230.01 110.46 229.45 112.60 231.48 C 113.78 233.08 114.34 235.02 115.39 236.70 C 117.67 238.89 120.91 240.14 124.08 239.76 C 127.82 239.60 130.14 235.34 134.07 236.02 C 135.90 236.74 136.91 238.51 137.88 240.10 C 140.39 238.24 142.43 235.17 141.46 231.92 C 140.89 229.87 140.70 226.23 143.92 226.96 C 147.92 232.46 145.34 241.28 138.96 243.76 C 137.35 244.20 136.36 242.86 136.17 241.43 C 135.05 241.06 133.94 240.70 132.83 240.32 C 125.98 246.64 112.45 244.26 109.97 234.76 C 108.52 234.66 107.07 234.56 105.62 234.44 C 104.29 235.10 102.52 236.33 101.45 234.55 C 98.45 231.33 98.09 226.16 100.50 222.50 Z" />
<path fill="#e6c174" d=" M 15.99 220.97 C 23.10 220.22 30.17 219.14 37.30 218.60 C 37.45 223.93 37.48 229.32 38.65 234.55 C 39.67 239.04 41.98 243.08 44.20 247.08 C 29.51 252.70 14.75 258.15 0.00 263.61 L 0.00 222.94 C 5.25 221.71 10.66 221.62 15.99 220.97 Z" />
<path fill="#fce5f2" d=" M 238.04 218.51 C 252.07 223.73 265.92 229.45 279.73 235.23 C 281.70 236.02 283.66 236.93 285.21 238.42 C 282.55 245.13 282.94 252.57 281.63 259.61 C 275.85 256.52 270.75 252.39 265.40 248.66 C 254.76 241.10 244.20 233.43 233.64 225.77 C 235.46 223.58 236.93 221.13 238.04 218.51 Z" />
<path fill="#eccfac" d=" M 336.67 218.98 C 357.71 222.29 378.82 225.18 400.00 227.42 L 400.00 232.45 C 379.26 229.48 358.51 226.52 337.82 223.22 C 337.45 221.80 337.06 220.38 336.67 218.98 Z" />
<path fill="#b48e4b" d=" M 46.25 221.23 C 46.75 221.76 46.75 221.76 46.25 221.23 Z" />
<path fill="#e5c172" d=" M 337.82 223.22 C 358.51 226.52 379.26 229.48 400.00 232.45 L 400.00 277.32 C 386.78 272.45 374.03 266.45 360.91 261.35 C 355.55 259.20 350.39 256.57 344.88 254.81 C 344.99 251.47 347.01 247.43 344.09 244.74 C 343.14 245.00 341.25 245.50 340.30 245.76 C 340.30 241.44 343.47 236.16 340.04 232.50 C 339.27 229.41 338.62 226.29 337.82 223.22 Z" />
<path fill="#f3d4b7" d=" M 231.41 228.39 C 232.16 227.53 232.91 226.66 233.64 225.77 C 244.20 233.43 254.76 241.10 265.40 248.66 C 270.75 252.39 275.85 256.52 281.63 259.61 C 281.46 260.91 281.31 262.21 281.16 263.51 C 275.53 260.48 270.70 256.23 265.39 252.70 C 253.95 244.75 243.06 236.03 231.41 228.39 Z" />
<path fill="#ae8944" d=" M 45.12 227.47 C 48.45 227.54 43.66 230.49 45.12 227.47 Z" />
<path fill="#a9853f" d=" M 49.19 229.72 C 48.31 228.54 48.52 227.79 49.84 227.47 C 50.73 228.64 50.52 229.39 49.19 229.72 Z" />
<path fill="#ecc683" d=" M 227.79 232.39 C 228.97 231.04 230.21 229.74 231.41 228.39 C 243.06 236.03 253.95 244.75 265.39 252.70 C 270.70 256.23 275.53 260.48 281.16 263.51 C 280.40 270.45 279.83 277.40 279.40 284.36 C 270.30 276.56 262.46 267.44 253.83 259.15 C 245.64 249.76 236.65 241.13 227.79 232.39 Z" />
<path fill="#f3d5bc" d=" M 225.61 235.30 C 226.27 234.28 227.01 233.32 227.79 232.39 C 236.65 241.13 245.64 249.76 253.83 259.15 C 262.46 267.44 270.30 276.56 279.40 284.36 C 279.30 286.02 279.25 287.68 279.22 289.35 C 271.35 282.41 264.13 274.73 257.24 266.82 C 246.71 256.30 236.38 245.58 225.61 235.30 Z" />
<path fill="#b8914f" d=" M 47.06 234.13 C 50.38 234.37 45.44 237.07 47.06 234.13 Z" />
<path fill="#fffffe" d=" M 295.35 233.56 C 308.86 236.20 322.56 237.92 336.34 238.03 C 335.95 240.97 335.53 243.91 335.13 246.85 C 328.13 247.35 321.10 247.39 314.10 247.12 C 307.48 245.90 300.76 244.84 294.53 242.19 C 294.79 239.31 295.01 236.43 295.35 233.56 Z" />
<path fill="#d6aa6e" d=" M 55.14 235.16 C 56.77 235.22 56.53 237.95 55.00 237.97 C 53.37 237.89 53.61 235.19 55.14 235.16 Z" />
<path fill="#fbe4ee" d=" M 222.59 241.06 C 223.61 239.14 224.57 237.20 225.61 235.30 C 236.38 245.58 246.71 256.30 257.24 266.82 C 264.13 274.73 271.35 282.41 279.22 289.35 C 278.45 299.63 281.49 309.57 284.54 319.24 C 282.72 318.86 280.91 318.51 279.11 318.12 C 276.77 317.28 274.36 316.19 273.02 313.99 C 263.97 300.72 254.66 287.64 245.81 274.24 C 237.85 263.33 231.10 251.56 222.59 241.06 Z" />
<path fill="#bd9654" d=" M 89.17 240.17 C 90.46 240.81 90.42 241.48 89.05 242.16 C 87.76 241.52 87.80 240.85 89.17 240.17 Z" />
<path fill="#b18c48" d=" M 96.28 239.97 C 99.29 238.45 96.39 243.29 96.28 239.97 Z" />
<path fill="#c99f60" d=" M 51.38 241.07 C 54.41 239.62 51.42 244.40 51.38 241.07 Z" />
<path fill="#c49b5b" d=" M 58.19 241.45 C 59.59 241.05 60.09 241.55 59.70 242.95 C 58.31 243.35 57.80 242.85 58.19 241.45 Z" />
<path fill="#b18c48" d=" M 101.07 241.14 C 104.10 239.66 101.13 244.46 101.07 241.14 Z" />
<path fill="#937328" d=" M 107.28 242.27 C 107.84 242.79 107.84 242.79 107.28 242.27 Z" />
<path fill="#c49c5b" d=" M 203.20 241.92 C 204.46 242.55 204.44 243.24 203.13 244.00 C 201.86 243.37 201.89 242.67 203.20 241.92 Z" />
<path fill="#f3d5ba" d=" M 221.45 243.13 C 221.74 242.61 222.30 241.58 222.59 241.06 C 231.10 251.56 237.85 263.33 245.81 274.24 C 254.66 287.64 263.97 300.72 273.02 313.99 C 274.36 316.19 276.77 317.28 279.11 318.12 C 276.17 317.53 273.22 317.06 270.26 316.59 C 266.25 309.19 260.82 302.70 256.34 295.59 C 247.73 283.16 239.27 270.62 230.95 257.99 C 227.82 253.02 223.43 248.77 221.45 243.13 Z" />
<path fill="#a07e36" d=" M 83.42 243.23 C 83.92 243.79 83.92 243.79 83.42 243.23 Z" />
<path fill="#edc685" d=" M 217.94 247.21 C 219.18 245.92 220.36 244.55 221.45 243.13 C 223.43 248.77 227.82 253.02 230.95 257.99 C 239.27 270.62 247.73 283.16 256.34 295.59 C 260.82 302.70 266.25 309.19 270.26 316.59 C 264.39 315.39 258.39 315.39 252.43 315.49 C 247.36 303.85 241.23 292.71 235.51 281.38 C 229.33 270.16 224.12 258.43 217.94 247.21 Z" />
<path fill="#d7aa6e" d=" M 63.16 244.20 C 66.49 244.37 61.60 247.16 63.16 244.20 Z" />
<path fill="#9d7b33" d=" M 112.26 244.06 C 115.32 242.61 112.31 247.37 112.26 244.06 Z" />
<path fill="#d6aa6e" d=" M 55.29 245.06 C 58.32 243.61 55.33 248.39 55.29 245.06 Z" />
<path fill="#2f5973" d=" M 288.54 245.22 C 297.19 248.14 305.80 251.63 315.01 252.24 C 323.41 252.43 331.82 252.18 340.20 251.53 C 338.18 268.21 335.76 284.85 333.34 301.47 C 330.27 315.83 327.37 330.24 323.66 344.45 C 322.25 351.53 316.17 357.27 309.08 358.47 C 295.35 361.13 281.41 362.53 267.56 364.43 C 253.71 365.48 239.80 365.81 225.92 366.38 C 218.53 366.91 211.17 367.83 203.78 368.37 C 204.30 352.92 204.54 337.44 203.64 322.00 C 210.78 321.51 217.94 321.99 225.09 321.54 C 237.38 320.89 249.68 320.11 261.99 320.61 C 270.37 321.59 278.69 323.11 286.92 324.99 C 288.12 328.16 288.76 331.57 290.38 334.57 C 294.29 337.51 298.60 340.85 303.75 340.74 C 305.82 340.13 305.49 337.94 305.10 336.32 C 300.10 335.04 293.95 332.84 292.67 327.20 C 289.43 317.68 286.00 308.10 284.45 298.14 C 283.55 280.41 286.41 262.77 288.54 245.22 Z" />
<path fill="#d9ac70" d=" M 79.28 246.17 C 80.71 245.68 81.16 246.14 80.63 247.54 C 79.20 248.03 78.75 247.57 79.28 246.17 Z" />
<path fill="#000000" d=" M 83.57 249.72 C 83.85 248.42 84.13 247.12 84.56 245.86 C 84.43 246.79 84.16 248.67 84.03 249.60 C 85.76 249.23 87.49 248.79 89.28 248.71 C 89.11 250.23 88.33 251.29 86.95 251.89 C 94.74 256.37 103.65 258.30 112.09 261.17 C 117.81 263.37 124.08 262.78 129.95 264.37 C 135.83 265.90 141.90 265.79 147.92 265.82 C 147.35 264.49 145.10 263.28 146.45 261.72 C 149.28 262.04 150.80 265.20 152.84 266.99 C 151.65 269.08 150.47 271.94 147.79 272.31 C 147.90 271.66 148.10 270.37 148.21 269.73 C 141.41 269.98 134.59 269.70 127.95 268.15 C 122.31 266.73 116.34 267.18 110.83 265.22 C 101.86 261.99 92.29 260.10 84.13 254.94 C 83.83 255.83 82.68 258.62 81.60 256.74 C 80.63 254.14 79.38 249.92 83.57 249.72 Z" />
<path fill="#be9654" d=" M 102.18 246.03 C 103.44 246.68 103.40 247.36 102.04 248.06 C 100.77 247.41 100.82 246.73 102.18 246.03 Z" />
<path fill="#99782f" d=" M 122.25 246.26 C 122.79 246.79 122.79 246.79 122.25 246.26 Z" />
<path fill="#bb9452" d=" M 201.18 246.13 C 202.46 246.75 202.43 247.42 201.09 248.16 C 199.81 247.54 199.83 246.86 201.18 246.13 Z" />
<path fill="#eccfae" d=" M 0.00 263.61 C 14.75 258.15 29.51 252.70 44.20 247.08 C 44.92 248.33 45.66 249.57 46.42 250.81 C 31.06 257.24 15.04 262.13 0.00 269.33 L 0.00 263.61 Z" />
<path fill="#bb9452" d=" M 89.27 247.30 C 89.80 247.79 89.80 247.79 89.27 247.30 Z" />
<path fill="#c29959" d=" M 108.23 247.39 C 108.73 247.91 108.73 247.91 108.23 247.39 Z" />
<path fill="#a7833d" d=" M 128.09 247.37 C 131.41 247.60 126.50 250.33 128.09 247.37 Z" />
<path fill="#ddb075" d=" M 115.13 248.08 C 116.38 248.76 116.33 249.43 114.96 250.09 C 113.70 249.40 113.75 248.73 115.13 248.08 Z" />
<path fill="#f4d6bc" d=" M 215.47 249.39 C 216.31 248.69 217.13 247.96 217.94 247.21 C 224.12 258.43 229.33 270.16 235.51 281.38 C 241.23 292.71 247.36 303.85 252.43 315.49 C 251.06 315.49 249.69 315.48 248.32 315.49 C 245.57 308.29 241.66 301.62 238.35 294.68 C 230.66 279.62 223.39 264.34 215.47 249.39 Z" />
<path fill="#c29959" d=" M 74.32 249.20 C 74.80 249.74 74.80 249.74 74.32 249.20 Z" />
<path fill="#bd9654" d=" M 119.10 249.40 C 120.51 249.12 120.96 249.67 120.47 251.04 C 119.06 251.32 118.60 250.77 119.10 249.40 Z" />
<path fill="#b48e4b" d=" M 135.30 249.23 C 135.77 249.78 135.77 249.78 135.30 249.23 Z" />
<path fill="#fbe3ee" d=" M 211.90 251.05 C 213.12 250.56 214.30 250.00 215.47 249.39 C 223.39 264.34 230.66 279.62 238.35 294.68 C 241.66 301.62 245.57 308.29 248.32 315.49 C 243.63 315.50 238.96 315.86 234.28 316.05 C 231.87 306.25 227.63 297.03 224.69 287.40 C 220.42 275.29 216.44 263.07 211.90 251.05 Z" />
<path fill="#f5ddd9" d=" M 0.00 269.33 C 15.04 262.13 31.06 257.24 46.42 250.81 C 52.27 260.63 59.60 269.54 64.59 279.87 C 52.36 288.34 39.70 296.16 27.20 304.23 C 18.35 310.20 9.04 315.46 0.00 321.15 L 0.00 269.33 Z" />
<path fill="#d0a567" d=" M 199.22 251.17 C 200.85 250.60 201.40 251.14 200.87 252.78 C 199.24 253.34 198.69 252.80 199.22 251.17 Z" />
<path fill="#c99f60" d=" M 77.27 252.01 C 80.26 250.46 77.42 255.34 77.27 252.01 Z" />
<path fill="#d7aa6e" d=" M 125.20 252.10 C 128.14 250.48 125.44 255.42 125.20 252.10 Z" />
<path fill="#937328" d=" M 195.15 252.31 C 198.39 250.61 196.21 257.14 194.58 253.94 C 194.72 253.54 195.01 252.72 195.15 252.31 Z" />
<path fill="#f5d6c2" d=" M 208.58 252.28 C 209.69 251.87 210.79 251.46 211.90 251.05 C 216.44 263.07 220.42 275.29 224.69 287.40 C 227.63 297.03 231.87 306.25 234.28 316.05 C 233.52 316.09 232.01 316.17 231.26 316.21 C 228.72 306.38 224.54 297.09 221.58 287.39 C 217.35 275.66 213.71 263.67 208.58 252.28 Z" />
<path fill="#a7843d" d=" M 62.08 253.33 C 65.39 253.57 60.47 256.29 62.08 253.33 Z" />
<path fill="#c99f60" d=" M 71.33 252.98 C 72.72 252.37 74.24 254.56 73.68 255.80 C 72.38 256.07 70.80 254.24 71.33 252.98 Z" />
<path fill="#d7aa6e" d=" M 131.16 253.23 C 134.07 251.56 131.45 256.55 131.16 253.23 Z" />
<path fill="#b18c48" d=" M 140.08 253.24 C 143.40 253.50 138.46 256.17 140.08 253.24 Z" />
<path fill="#b7904d" d=" M 144.42 252.99 C 145.80 252.65 146.30 253.19 145.93 254.60 C 144.55 254.93 144.05 254.39 144.42 252.99 Z" />
<path fill="#efca94" d=" M 206.04 255.40 C 206.65 254.19 207.41 253.02 208.58 252.28 C 213.71 263.67 217.35 275.66 221.58 287.39 C 224.54 297.09 228.72 306.38 231.26 316.21 C 227.06 316.38 222.87 316.72 218.67 316.77 C 218.68 311.83 216.94 307.20 215.66 302.51 C 214.04 295.14 211.89 287.84 211.43 280.27 C 211.14 280.77 210.85 281.27 210.56 281.78 C 210.44 275.96 207.59 270.72 207.09 264.97 C 206.69 261.79 206.42 258.59 206.04 255.40 Z" />
<path fill="#d3a76b" d=" M 136.13 255.26 C 137.74 254.70 138.32 255.24 137.89 256.89 C 136.28 257.44 135.69 256.90 136.13 255.26 Z" />
<path fill="#e9cb9e" d=" M 344.88 254.81 C 350.39 256.57 355.55 259.20 360.91 261.35 C 374.03 266.45 386.78 272.45 400.00 277.32 L 400.00 283.12 C 387.51 277.94 375.34 272.00 362.74 267.09 C 356.54 264.62 350.46 261.88 344.28 259.39 C 344.47 257.86 344.67 256.33 344.88 254.81 Z" />
<path fill="#d6ab6e" d=" M 67.35 255.99 C 70.34 254.49 67.45 259.33 67.35 255.99 Z" />
<path fill="#fae1e7" d=" M 206.04 255.40 C 206.42 258.59 206.69 261.79 207.09 264.97 C 207.59 270.72 210.44 275.96 210.56 281.78 C 210.85 281.27 211.14 280.77 211.43 280.27 C 211.89 287.84 214.04 295.14 215.66 302.51 C 216.94 307.20 218.68 311.83 218.67 316.77 C 214.91 316.78 211.16 316.70 207.40 316.84 C 205.73 306.27 204.87 295.60 203.29 285.02 C 202.35 278.82 202.18 272.50 200.56 266.42 C 202.68 262.91 204.31 259.12 206.04 255.40 Z" />
<path fill="#937328" d=" M 58.21 257.40 C 58.76 257.93 58.76 257.93 58.21 257.40 Z" />
<path fill="#d7aa6e" d=" M 149.17 257.21 C 152.09 255.58 149.41 260.54 149.17 257.21 Z" />
<path fill="#c99f60" d=" M 77.25 258.11 C 80.20 256.50 77.48 261.43 77.25 258.11 Z" />
<path fill="#aa8641" d=" M 143.04 258.16 C 146.36 258.42 141.43 261.11 143.04 258.16 Z" />
<path fill="#bd9654" d=" M 188.19 258.08 C 189.45 258.74 189.43 259.43 188.13 260.16 C 186.86 259.50 186.88 258.81 188.19 258.08 Z" />
<path fill="#c89f60" d=" M 154.21 260.17 C 155.81 259.63 156.39 260.18 155.97 261.83 C 154.37 262.37 153.79 261.81 154.21 260.17 Z" />
<path fill="#c29959" d=" M 191.30 260.18 C 191.77 260.72 191.77 260.72 191.30 260.18 Z" />
<path fill="#f2d9ce" d=" M 344.28 259.39 C 350.46 261.88 356.54 264.62 362.74 267.09 C 375.34 272.00 387.51 277.94 400.00 283.12 L 400.00 344.72 C 388.77 337.93 378.14 330.23 367.54 322.52 C 357.51 316.29 348.49 308.56 338.27 302.63 C 338.52 301.07 338.74 299.50 338.96 297.94 C 343.90 301.62 349.40 304.42 354.96 307.02 C 357.33 308.41 359.94 305.80 360.60 303.63 C 362.54 297.54 363.59 291.21 365.13 285.01 C 365.65 282.47 366.53 279.92 366.35 277.31 C 365.38 274.32 362.54 272.49 360.01 270.91 C 354.75 267.95 349.32 265.29 343.85 262.74 C 343.99 261.62 344.13 260.50 344.28 259.39 Z" />
<path fill="#bb9452" d=" M 61.29 261.22 C 61.79 261.74 61.79 261.74 61.29 261.22 Z" />
<path fill="#bb9452" d=" M 151.21 262.30 C 151.74 262.79 151.74 262.79 151.21 262.30 Z" />
<path fill="#c89f60" d=" M 65.23 263.17 C 66.84 262.66 67.42 263.23 66.95 264.87 C 65.33 265.35 64.76 264.79 65.23 263.17 Z" />
<path fill="#c59d5d" d=" M 71.17 263.18 C 74.50 263.26 69.68 266.19 71.17 263.18 Z" />
<path fill="#d6aa6e" d=" M 83.27 263.08 C 86.25 261.53 83.42 266.41 83.27 263.08 Z" />
<path fill="#f5dedb" d=" M 343.85 262.74 C 349.32 265.29 354.75 267.95 360.01 270.91 C 362.54 272.49 365.38 274.32 366.35 277.31 C 366.53 279.92 365.65 282.47 365.13 285.01 C 363.59 291.21 362.54 297.54 360.60 303.63 C 359.94 305.80 357.33 308.41 354.96 307.02 C 349.40 304.42 343.90 301.62 338.96 297.94 C 340.55 286.20 342.35 274.49 343.85 262.74 Z" />
<path fill="#cba162" d=" M 75.33 265.10 C 76.71 264.62 77.22 265.09 76.86 266.50 C 75.47 266.97 74.96 266.51 75.33 265.10 Z" />
<path fill="#b7904d" d=" M 185.19 265.20 C 186.37 265.97 186.25 266.64 184.83 267.21 C 183.64 266.44 183.76 265.77 185.19 265.20 Z" />
<path fill="#000000" d=" M 95.61 266.41 C 97.99 266.10 99.83 268.27 102.02 268.94 C 111.45 272.65 121.67 274.63 131.83 274.17 C 131.82 274.61 131.82 275.50 131.81 275.94 C 127.02 277.67 121.79 276.37 116.89 275.76 C 110.49 274.33 103.88 273.14 98.03 270.03 C 96.84 269.24 94.55 268.17 95.61 266.41 Z" />
<path fill="#c79e5f" d=" M 179.28 266.10 C 180.93 266.17 180.51 268.92 179.06 269.01 C 177.42 268.88 177.86 266.23 179.28 266.10 Z" />
<path fill="#aa8641" d=" M 87.15 267.11 C 90.47 267.18 85.66 270.14 87.15 267.11 Z" />
<path fill="#ae8944" d=" M 154.27 267.21 C 154.77 267.74 154.77 267.74 154.27 267.21 Z" />
<path fill="#ddb075" d=" M 157.30 267.10 C 158.67 266.61 159.20 267.08 158.88 268.49 C 157.50 268.97 156.98 268.51 157.30 267.10 Z" />
<path fill="#bb9452" d=" M 190.15 267.10 C 191.37 267.78 191.32 268.49 190.00 269.23 C 188.78 268.54 188.83 267.83 190.15 267.10 Z" />
<path fill="#f4d4b6" d=" M 190.36 277.09 C 194.25 274.05 197.93 270.64 200.56 266.42 C 202.18 272.50 202.35 278.82 203.29 285.02 C 204.87 295.60 205.73 306.27 207.40 316.84 C 206.33 316.89 205.25 316.93 204.18 316.97 C 201.97 302.21 201.52 287.10 197.61 272.65 C 194.83 276.15 196.01 280.89 195.78 285.02 C 196.13 293.73 196.68 302.43 196.94 311.16 C 195.74 310.98 194.54 310.85 193.35 310.71 C 192.91 303.13 192.04 295.56 192.45 287.95 C 192.16 284.32 193.57 279.77 190.36 277.09 Z" />
<path fill="#d6aa6e" d=" M 80.26 268.17 C 81.90 267.65 82.44 268.21 81.88 269.83 C 80.24 270.34 79.70 269.78 80.26 268.17 Z" />
<path fill="#b08b46" d=" M 72.31 271.05 C 73.56 271.67 73.53 272.37 72.23 273.16 C 70.99 272.54 71.01 271.83 72.31 271.05 Z" />
<path fill="#cca264" d=" M 156.98 272.36 C 160.31 272.57 155.38 275.31 156.98 272.36 Z" />
<path fill="#c79e5e" d=" M 175.23 272.12 C 176.86 271.52 177.40 272.05 176.85 273.70 C 175.22 274.29 174.68 273.76 175.23 272.12 Z" />
<path fill="#b48e4b" d=" M 183.24 272.23 C 183.78 272.72 183.78 272.72 183.24 272.23 Z" />
<path fill="#d3a76b" d=" M 69.07 273.16 C 72.39 273.49 67.36 276.05 69.07 273.16 Z" />
<path fill="#ae8944" d=" M 152.31 273.22 C 152.82 273.74 152.82 273.74 152.31 273.22 Z" />
<path fill="#eec98e" d=" M 195.78 285.02 C 196.01 280.89 194.83 276.15 197.61 272.65 C 201.52 287.10 201.97 302.21 204.18 316.97 C 203.73 316.97 202.81 316.96 202.35 316.96 C 200.92 314.72 200.03 311.52 196.94 311.16 C 196.68 302.43 196.13 293.73 195.78 285.02 Z" />
<path fill="#d6aa6e" d=" M 80.18 275.18 C 81.80 274.66 82.35 275.22 81.84 276.86 C 80.22 277.37 79.66 276.81 80.18 275.18 Z" />
<path fill="#c29959" d=" M 86.14 276.25 C 87.53 275.73 87.99 276.18 87.50 277.62 C 86.10 278.15 85.65 277.69 86.14 276.25 Z" />
<path fill="#c29959" d=" M 96.32 276.30 C 96.84 276.79 96.84 276.79 96.32 276.30 Z" />
<path fill="#c29959" d=" M 75.23 278.17 C 75.70 278.71 75.70 278.71 75.23 278.17 Z" />
<path fill="#ddb075" d=" M 100.14 278.23 C 101.76 277.66 102.32 278.20 101.82 279.84 C 100.19 280.40 99.63 279.86 100.14 278.23 Z" />
<path fill="#ae8944" d=" M 174.09 278.34 C 175.47 277.72 175.93 278.14 175.48 279.60 C 174.09 280.22 173.63 279.80 174.09 278.34 Z" />
<path fill="#fce3eb" d=" M 187.84 278.99 C 188.47 278.51 189.73 277.56 190.36 277.09 C 193.57 279.77 192.16 284.32 192.45 287.95 C 192.04 295.56 192.91 303.13 193.35 310.71 C 190.75 310.38 188.17 310.01 185.58 309.65 C 185.41 304.74 185.98 299.86 186.41 294.98 C 186.67 289.63 186.91 284.27 187.84 278.99 Z" />
<path fill="#ae8944" d=" M 72.22 279.32 C 72.70 279.88 72.70 279.88 72.22 279.32 Z" />
<path fill="#a4813a" d=" M 149.09 279.37 C 152.41 279.42 147.61 282.41 149.09 279.37 Z" />
<path fill="#b58f4b" d=" M 158.28 279.34 C 159.60 277.95 160.32 280.56 159.25 281.29 C 157.96 282.74 157.16 280.05 158.28 279.34 Z" />
<path fill="#aa8641" d=" M 169.05 279.42 C 172.37 279.60 167.48 282.40 169.05 279.42 Z" />
<path fill="#f4d6be" d=" M 182.92 282.39 C 184.59 281.31 186.23 280.16 187.84 278.99 C 186.91 284.27 186.67 289.63 186.41 294.98 C 185.98 299.86 185.41 304.74 185.58 309.65 C 184.15 309.45 182.72 309.25 181.29 309.05 C 182.88 303.13 182.04 296.96 183.03 290.96 C 183.49 288.11 183.28 285.23 182.92 282.39 Z" />
<path fill="#ebceaa" d=" M 64.59 279.87 C 65.20 281.01 65.81 282.16 66.43 283.31 C 57.83 288.27 49.70 293.96 41.44 299.45 C 37.20 302.30 32.75 304.84 28.69 307.96 C 23.29 308.08 18.42 311.08 14.88 314.97 C 9.93 320.55 4.88 326.04 0.00 331.69 L 0.00 321.15 C 9.04 315.46 18.35 310.20 27.20 304.23 C 39.70 296.16 52.36 288.34 64.59 279.87 Z" />
<path fill="#b48e4b" d=" M 153.26 281.23 C 153.78 281.73 153.78 281.73 153.26 281.23 Z" />
<path fill="#ddb075" d=" M 103.24 282.18 C 104.87 281.63 105.42 282.18 104.89 283.81 C 103.26 284.36 102.71 283.81 103.24 282.18 Z" />
<path fill="#c59c5d" d=" M 111.23 282.15 C 112.87 281.60 113.38 282.15 112.76 283.79 C 111.12 284.33 110.61 283.78 111.23 282.15 Z" />
<path fill="#d7aa6e" d=" M 86.18 283.28 C 87.81 282.76 88.37 283.32 87.84 284.94 C 86.20 285.45 85.65 284.90 86.18 283.28 Z" />
<path fill="#c39b5a" d=" M 121.22 283.32 C 122.66 282.03 123.67 284.73 122.45 285.56 C 121.02 286.90 119.98 284.13 121.22 283.32 Z" />
<path fill="#c49b5b" d=" M 165.18 283.19 C 166.45 283.84 166.44 284.54 165.15 285.28 C 163.88 284.63 163.89 283.93 165.18 283.19 Z" />
<path fill="#efc991" d=" M 177.38 285.83 C 179.23 284.70 181.08 283.55 182.92 282.39 C 183.28 285.23 183.49 288.11 183.03 290.96 C 182.04 296.96 182.88 303.13 181.29 309.05 C 178.90 308.71 176.50 308.37 174.10 308.08 C 175.23 300.67 176.66 293.30 177.38 285.83 Z" />
<path fill="#e8c379" d=" M 41.44 299.45 C 49.70 293.96 57.83 288.27 66.43 283.31 C 69.70 289.30 73.22 295.36 78.46 299.87 C 78.33 299.96 78.08 300.13 77.95 300.22 C 74.78 298.90 71.32 299.22 68.03 299.80 C 64.26 300.58 59.64 301.26 58.12 305.39 C 48.32 306.32 38.51 307.26 28.69 307.96 C 32.75 304.84 37.20 302.30 41.44 299.45 Z" />
<path fill="#b48f4b" d=" M 77.16 284.49 C 78.50 284.74 78.73 285.45 77.84 286.64 C 76.49 286.38 76.26 285.67 77.16 284.49 Z" />
<path fill="#b99350" d=" M 132.36 284.31 C 133.70 282.99 134.51 285.52 133.32 286.23 C 132.00 287.54 131.17 284.99 132.36 284.31 Z" />
<path fill="#b48e4b" d=" M 141.33 284.24 C 141.84 284.75 141.84 284.75 141.33 284.24 Z" />
<path fill="#ae8944" d=" M 82.22 285.25 C 82.73 285.77 82.73 285.77 82.22 285.25 Z" />
<path fill="#99782f" d=" M 157.14 286.25 C 157.68 286.78 157.68 286.78 157.14 286.25 Z" />
<path fill="#f6d8c8" d=" M 173.47 288.20 C 174.77 287.41 176.08 286.62 177.38 285.83 C 176.66 293.30 175.23 300.67 174.10 308.08 C 172.86 307.95 171.63 307.83 170.40 307.73 L 170.52 307.29 C 172.54 301.16 173.86 294.67 173.47 288.20 Z" />
<path fill="#bb9452" d=" M 90.28 287.41 C 91.63 287.61 91.85 288.30 90.92 289.50 C 89.56 289.30 89.35 288.60 90.28 287.41 Z" />
<path fill="#d6ab6e" d=" M 118.24 288.00 C 121.16 286.35 118.50 291.33 118.24 288.00 Z" />
<path fill="#aa8641" d=" M 126.16 288.16 C 129.50 288.21 124.67 291.19 126.16 288.16 Z" />
<path fill="#99782f" d=" M 141.32 288.29 C 141.89 288.79 141.89 288.79 141.32 288.29 Z" />
<path fill="#d2a76a" d=" M 150.31 288.35 C 151.72 287.17 152.89 289.75 151.60 290.59 C 150.18 291.76 149.02 289.18 150.31 288.35 Z" />
<path fill="#c29959" d=" M 105.22 289.28 C 105.74 289.78 105.74 289.78 105.22 289.28 Z" />
<path fill="#fbe3ed" d=" M 165.98 292.69 C 168.48 291.20 170.97 289.69 173.47 288.20 C 173.86 294.67 172.54 301.16 170.52 307.29 C 169.65 304.20 166.54 303.22 163.86 302.30 C 164.61 299.11 165.32 295.91 165.98 292.69 Z" />
<path fill="#bb9452" d=" M 155.21 290.19 C 156.45 290.83 156.43 291.54 155.13 292.32 C 153.89 291.67 153.92 290.96 155.21 290.19 Z" />
<path fill="#b48e4b" d=" M 84.17 292.29 C 85.39 291.61 86.56 293.69 85.81 294.64 C 84.58 295.31 83.41 293.23 84.17 292.29 Z" />
<path fill="#c99f60" d=" M 94.37 292.19 C 97.38 290.71 94.45 295.52 94.37 292.19 Z" />
<path fill="#c99f60" d=" M 100.24 293.24 C 100.74 293.75 100.74 293.75 100.24 293.24 Z" />
<path fill="#f0d1b8" d=" M 162.23 294.92 C 163.47 294.17 164.73 293.43 165.98 292.69 C 165.32 295.91 164.61 299.11 163.86 302.30 C 162.92 301.99 161.98 301.72 161.03 301.48 C 161.43 299.29 161.83 297.10 162.23 294.92 Z" />
<path fill="#c99f60" d=" M 131.17 294.24 C 132.79 293.70 133.32 294.25 132.76 295.89 C 131.14 296.43 130.61 295.88 131.17 294.24 Z" />
<path fill="#99782f" d=" M 144.08 294.27 C 147.40 294.32 142.60 297.31 144.08 294.27 Z" />
<path fill="#b48f4b" d=" M 120.13 295.04 C 123.45 295.12 118.65 298.06 120.13 295.04 Z" />
<path fill="#efc88f" d=" M 154.15 300.44 C 156.80 298.53 159.42 296.59 162.23 294.92 C 161.83 297.10 161.43 299.29 161.03 301.48 C 158.74 301.06 156.45 300.75 154.15 300.44 Z" />
<path fill="#ae8944" d=" M 92.37 297.26 C 92.87 297.79 92.87 297.79 92.37 297.26 Z" />
<path fill="#937328" d=" M 106.23 297.26 C 106.79 297.77 106.79 297.77 106.23 297.26 Z" />
<path fill="#99782f" d=" M 111.26 297.33 C 111.80 297.85 111.80 297.85 111.26 297.33 Z" />
<path fill="#937328" d=" M 126.08 297.38 C 127.69 296.83 128.20 297.38 127.60 299.03 C 125.98 299.58 125.47 299.03 126.08 297.38 Z" />
<path fill="#cfa567" d=" M 100.15 298.16 C 101.77 297.55 102.34 298.07 101.86 299.71 C 100.24 300.32 99.67 299.80 100.15 298.16 Z" />
<path fill="#c29959" d=" M 135.23 300.23 C 135.78 300.69 135.78 300.69 135.23 300.23 Z" />
<path fill="#f4ddd9" d=" M 82.28 302.50 C 83.76 302.27 86.94 303.72 86.07 305.53 C 84.39 305.97 82.69 303.91 82.28 302.50 Z" />
<path fill="#b7904d" d=" M 126.12 303.17 C 127.37 303.84 127.29 304.50 125.88 305.14 C 124.62 304.46 124.70 303.80 126.12 303.17 Z" />
<path fill="#e8c99b" d=" M 338.27 302.63 C 348.49 308.56 357.51 316.29 367.54 322.52 C 378.14 330.23 388.77 337.93 400.00 344.72 L 400.00 351.07 C 379.08 336.58 358.22 322.00 337.32 307.48 C 337.66 305.87 337.99 304.25 338.27 302.63 Z" />
<path fill="#2f5973" d=" M 63.10 305.81 C 66.80 304.47 70.69 303.84 74.62 303.95 C 77.19 335.95 77.94 368.13 81.97 400.00 L 58.94 400.00 C 55.80 393.60 52.94 387.07 50.12 380.53 C 56.31 377.52 62.71 374.87 68.68 371.45 C 70.84 370.31 68.86 368.22 67.62 367.34 C 61.21 362.34 54.66 357.50 48.21 352.56 C 52.96 336.91 58.21 321.41 63.10 305.81 Z" />
<path fill="#b28d49" d=" M 115.06 304.27 C 116.42 303.64 116.88 304.07 116.45 305.55 C 115.09 306.18 114.63 305.75 115.06 304.27 Z" />
<path fill="#2f5973" d=" M 154.21 305.08 C 158.48 306.00 165.53 305.26 166.47 310.86 C 170.54 325.68 174.74 340.45 178.85 355.25 C 171.27 360.65 163.61 365.93 155.89 371.13 C 156.78 372.50 157.75 373.91 159.30 374.62 C 164.83 377.57 170.38 380.48 175.95 383.36 C 173.30 388.96 170.56 394.51 167.69 400.00 L 142.81 400.00 C 144.60 391.71 146.16 383.36 147.14 374.94 C 149.63 354.68 151.44 334.36 153.01 314.02 C 153.25 311.01 153.67 308.04 154.21 305.08 Z" />
<path fill="#fffffe" d=" M 79.43 305.78 C 86.92 312.97 94.20 320.43 100.86 328.41 C 97.23 327.15 93.70 325.58 89.99 324.53 C 86.48 326.07 84.05 329.42 81.04 331.76 C 80.40 323.11 79.98 314.44 79.43 305.78 Z" />
<path fill="#ffcc99" d=" M 90.73 306.55 C 97.47 308.37 104.14 310.58 111.10 311.49 C 120.02 313.33 129.62 314.18 138.29 310.78 C 138.12 313.55 135.64 315.12 133.92 316.96 C 130.48 320.14 127.12 323.41 123.96 326.88 C 120.63 330.03 117.89 333.90 113.74 336.06 C 112.41 335.13 110.90 334.38 109.88 333.09 C 104.32 325.36 97.26 318.88 91.19 311.58 C 89.90 310.24 90.93 308.17 90.73 306.55 Z" />
<path fill="#fffffe" d=" M 127.75 328.93 C 134.77 321.84 142.07 315.03 148.99 307.83 C 148.34 316.42 147.53 325.00 146.89 333.59 C 144.15 330.97 141.91 327.82 138.85 325.55 C 135.02 326.14 131.48 327.90 127.75 328.93 Z" />
<path fill="#e3bf6f" d=" M 331.13 335.50 C 333.30 326.18 335.24 316.82 337.32 307.48 C 358.22 322.00 379.08 336.58 400.00 351.07 L 400.00 400.00 L 393.24 400.00 C 387.34 393.82 380.94 388.10 375.56 381.44 C 369.74 374.96 363.04 369.30 357.57 362.50 C 351.32 355.36 343.87 349.35 337.99 341.88 C 336.04 339.42 333.64 337.37 331.13 335.50 Z" />
<path fill="#2f5973" d=" M 32.33 313.21 C 40.29 311.41 48.62 311.63 56.73 310.67 C 52.68 323.86 48.23 336.93 43.97 350.05 C 43.36 351.78 42.90 354.02 44.64 355.29 C 50.56 360.23 56.93 364.61 62.98 369.40 C 56.92 372.40 50.80 375.28 44.70 378.21 C 47.10 385.76 50.82 392.82 54.13 400.00 L 31.87 400.00 C 30.44 388.34 27.49 376.82 27.73 365.01 C 27.91 350.96 28.12 336.89 29.23 322.87 C 29.61 319.50 30.42 316.06 32.33 313.21 Z" />
<path fill="#2f5973" d=" M 171.82 312.87 C 179.81 314.02 187.90 314.76 195.82 316.31 C 199.52 321.34 198.89 328.05 199.07 333.97 C 199.53 346.00 199.01 358.02 198.78 370.05 C 199.06 380.22 196.62 390.14 194.43 400.00 L 172.80 400.00 C 175.78 393.76 179.73 387.88 181.48 381.14 C 175.49 377.98 169.50 374.81 163.52 371.61 C 169.06 367.42 174.88 363.63 180.60 359.68 C 181.81 358.66 183.67 357.72 183.62 355.89 C 183.32 352.74 182.13 349.77 181.33 346.73 C 178.16 335.44 174.84 324.20 171.82 312.87 Z" />
<path fill="#2f5973" d=" M 19.15 318.15 C 20.96 315.94 23.46 314.49 25.99 313.25 C 23.35 322.68 23.86 332.53 23.13 342.21 C 23.07 354.80 22.04 367.44 23.52 379.99 C 17.12 386.84 10.67 393.68 3.74 400.00 L 0.00 400.00 L 0.00 339.67 C 6.47 332.58 12.82 325.37 19.15 318.15 Z" />
<path fill="#fffffe" d=" M 81.23 336.86 C 84.12 334.21 87.07 331.61 89.98 328.97 C 92.90 330.06 95.89 331.01 98.78 332.21 C 104.20 334.67 108.52 339.06 113.99 341.42 C 119.32 339.15 123.90 335.47 129.11 332.95 C 131.87 331.74 134.80 330.95 137.67 330.00 C 140.36 333.17 143.62 335.84 146.17 339.12 C 144.66 359.52 142.49 379.96 138.17 399.99 L 138.90 400.00 L 114.74 400.00 C 115.72 391.37 114.95 382.68 114.73 374.02 C 113.97 365.29 115.98 356.63 115.86 347.92 C 115.50 346.18 115.77 343.08 113.27 343.08 C 112.30 345.71 113.60 348.45 113.33 351.15 C 113.01 357.11 112.20 363.03 112.05 369.00 C 112.30 379.30 113.20 389.63 112.32 399.93 L 112.87 400.00 L 86.59 400.00 C 83.51 379.08 83.06 357.90 81.23 336.86 Z" />
<path fill="#e9cba0" d=" M 331.13 335.50 C 333.64 337.37 336.04 339.42 337.99 341.88 C 343.87 349.35 351.32 355.36 357.57 362.50 C 363.04 369.30 369.74 374.96 375.56 381.44 C 380.94 388.10 387.34 393.82 393.24 400.00 L 384.27 400.00 C 379.65 395.18 375.52 389.92 371.15 384.88 C 364.00 377.03 356.83 369.20 349.77 361.27 C 345.58 356.79 340.89 352.78 337.06 347.97 C 334.94 345.30 332.54 342.88 329.97 340.65 C 330.35 338.93 330.74 337.21 331.13 335.50 Z" />
<path fill="#f3dbd4" d=" M 329.97 340.65 C 332.54 342.88 334.94 345.30 337.06 347.97 C 340.89 352.78 345.58 356.79 349.77 361.27 C 356.83 369.20 364.00 377.03 371.15 384.88 C 375.52 389.92 379.65 395.18 384.27 400.00 L 329.85 400.00 C 322.09 387.93 312.89 376.81 305.78 364.33 C 309.73 363.31 313.65 362.10 317.46 360.63 C 324.62 356.51 328.90 348.71 329.97 340.65 Z" />
<path fill="#000000" d=" M 113.27 343.08 C 115.77 343.08 115.50 346.18 115.86 347.92 C 115.98 356.63 113.97 365.29 114.73 374.02 C 114.95 382.68 115.72 391.37 114.74 400.00 L 112.87 400.00 L 112.32 399.93 C 113.20 389.63 112.30 379.30 112.05 369.00 C 112.20 363.03 113.01 357.11 113.33 351.15 C 113.60 348.45 112.30 345.71 113.27 343.08 Z" />
<path fill="#040404" d=" M 108.13 344.94 C 111.90 342.44 114.23 348.80 112.75 351.59 C 112.10 354.10 109.01 354.34 107.29 352.77 C 106.28 350.32 106.13 346.87 108.13 344.94 Z" />
<path fill="#fffffe" d=" M 109.53 346.89 C 110.85 348.16 110.93 350.47 109.14 351.42 C 109.19 349.90 109.32 348.39 109.53 346.89 Z" />
<path fill="#e7c277" d=" M 278.97 368.02 C 286.59 367.03 294.21 366.09 301.81 364.92 C 306.02 371.12 310.19 377.35 314.44 383.52 C 318.54 388.87 321.76 394.86 326.15 400.00 L 294.42 400.00 C 289.80 389.09 283.81 378.82 278.97 368.02 Z" />
<path fill="#ebcb9f" d=" M 301.81 364.92 C 303.13 364.74 304.46 364.54 305.78 364.33 C 312.89 376.81 322.09 387.93 329.85 400.00 L 326.15 400.00 C 321.76 394.86 318.54 388.87 314.44 383.52 C 310.19 377.35 306.02 371.12 301.81 364.92 Z" />
<path fill="#f0d4bd" d=" M 275.71 368.45 C 276.79 368.30 277.88 368.16 278.97 368.02 C 283.81 378.82 289.80 389.09 294.42 400.00 L 290.32 400.00 C 285.43 389.49 280.18 379.14 275.71 368.45 Z" />
<path fill="#f7e0e1" d=" M 252.87 370.30 C 260.51 369.96 268.15 369.64 275.71 368.45 C 280.18 379.14 285.43 389.49 290.32 400.00 L 263.43 400.00 C 259.66 390.19 256.22 380.25 252.87 370.30 Z" />
<path fill="#ecca99" d=" M 232.92 371.12 C 234.22 371.07 235.51 371.02 236.81 370.98 C 238.71 380.70 241.24 390.29 243.21 400.00 L 240.06 400.00 C 237.41 390.44 236.03 380.55 232.92 371.12 Z" />
<path fill="#eac47d" d=" M 236.81 370.98 C 241.06 370.81 245.31 370.67 249.56 370.46 C 252.28 380.54 256.30 390.22 259.93 400.00 L 243.21 400.00 C 241.24 390.29 238.71 380.70 236.81 370.98 Z" />
<path fill="#efd0af" d=" M 249.56 370.46 C 250.39 370.42 252.05 370.34 252.87 370.30 C 256.22 380.25 259.66 390.19 263.43 400.00 L 259.93 400.00 C 256.30 390.22 252.28 380.54 249.56 370.46 Z" />
<path fill="#fae2e8" d=" M 214.11 372.50 C 219.63 372.01 225.13 371.31 230.67 371.19 C 231.77 380.93 235.14 390.24 236.12 400.00 L 217.59 400.00 C 216.44 390.83 214.96 381.70 214.11 372.50 Z" />
<path fill="#f3d7c6" d=" M 230.67 371.19 C 231.23 371.17 232.36 371.14 232.92 371.12 C 236.03 380.55 237.41 390.44 240.06 400.00 L 236.12 400.00 C 235.14 390.24 231.77 380.93 230.67 371.19 Z" />
<path fill="#ebc67e" d=" M 203.77 373.54 C 206.08 373.27 208.39 373.03 210.71 372.81 C 211.60 381.89 213.25 390.89 213.95 400.00 L 199.58 400.00 C 201.68 391.31 203.55 382.50 203.77 373.54 Z" />
<path fill="#efd0ad" d=" M 210.71 372.81 C 211.56 372.73 213.26 372.58 214.11 372.50 C 214.96 381.70 216.44 390.83 217.59 400.00 L 213.95 400.00 C 213.25 390.89 211.60 381.89 210.71 372.81 Z" />
<path fill="#f2d9cd" d=" M 10.93 400.00 C 15.75 395.59 20.16 390.77 24.63 386.02 C 25.28 390.68 26.13 395.31 26.63 400.00 L 10.93 400.00 Z" />
<path fill="#000000" d=" M 105.97 396.03 C 104.84 392.78 105.08 388.42 108.95 387.22 C 112.82 388.74 113.25 394.63 109.81 396.84 C 108.50 397.47 107.23 396.27 105.97 396.03 Z" />
<path fill="#fffffe" d=" M 108.29 390.42 C 110.51 389.68 110.11 394.67 108.31 394.52 C 107.43 393.41 107.42 391.53 108.29 390.42 Z" />
</svg>
