<?xml version="1.0" encoding="utf-8"?>
<!-- Generator: Adobe Illustrator 16.0.0, SVG Export Plug-In . SVG Version: 6.00 Build 0)  -->
<!DOCTYPE svg PUBLIC "-//W3C//DTD SVG 1.1//EN" "http://www.w3.org/Graphics/SVG/1.1/DTD/svg11.dtd">
<svg version="1.1" xmlns="http://www.w3.org/2000/svg" xmlns:xlink="http://www.w3.org/1999/xlink" x="0px" y="0px" width="629px"
	 height="593px" viewBox="0 0 629 593" enable-background="new 0 0 629 593" xml:space="preserve">
<g id="Calque_2">
	<ellipse fill="#B3B3B3" cx="308.243" cy="505.05" rx="123.757" ry="25.95"/>
	<ellipse fill="#B3B3B3" cx="416.743" cy="499.05" rx="51.257" ry="9.891"/>
	<path fill="#BF916F" d="M252,370c-3.067,14.376-15.329,27.563-20.751,41.004c-5.989,14.848-10.716,27.644-13.197,43.048
		c-2.192,13.611-7.01,28.538,3.726,40.171c5.344,5.791,10.606,8.4,19.246,8.801c11.037,0.51,11.754,1.272,20.777,9.028
		c15.58,13.392,25.29,2.595,36.173-10.626c4.097,1.692,12.087,1.29,16.795-0.324c2.173-0.746,17.977,15.036,21.037,16.551
		c17.993,8.901,13.922-9.17,28.008-15.404c6.479-2.867,14.073,2.032,20.433-1.002c9-4.296,9.615-18.459,16.725-21.157
		c-1.026,0.39,8.883,2.118,9.683,2.16c3.712,0.197,7.492-1.086,11.229-0.783c9.57,0.814,18.243,2.751,27.141-2.271
		c9.38-5.297,22.176-17.28,13.984-27.891c-6.786-8.789-24.201-9.323-34.078-8.858c-10.183,0.48-21.842,7.301-31.355,10.77
		c-2.232,0.814-11.451-32.862-13.883-36.369C374.396,403.44,372.615,387.07,364,373"/>
	<path fill="#AD8366" d="M253,373c-9.083,15.476-15.293,32.641-23.749,49.028c-6.873,13.321-7.188,38.626,15.602,35.82
		c3.18-18.792-0.307-50.414,17.176-62.598c25.619-17.854,26.249,8.678,27.92,25.749c0.845,8.627,1.849,17.11,2.274,26
		c0.604,12.611-3.855,40.982,5,50.777c14.709,16.271,22.772-10.961,24-21.557c2.113-18.245,0.215-36.675,3.332-54.922
		c3.131-18.324,17.693-46.455,36.671-20.518c11.477,15.693-3.777,57.221,25.628,53.371c1.896,7.914,5.025,21.426-0.286,28.554
		c-3.981,5.342-20.271,8.104-14.394,18.119c4.889,8.329,19.382-8.201,21.874-10.746c9.721-9.923,13.516-6.1,26.713-5.31
		c9.065,0.542,17.784,0.123,26.239-3.551c16.805-7.302,18.279-24.28-2-26.219c-15.086-1.441-31.778,7.186-44.849,13.9
		c2.002-10.389-6.677-24.438-9.622-34.19c-3.881-12.847-7.786-25.74-14.822-37.284c-4.395-7.21-12.248-18.592-11.707-27.426"/>
	<path d="M221,456c9.289,0.717,7.501,22.99,0.975,22.071c-7.577-1.067-2.887-21.478-0.975-23.071"/>
	<path d="M385,455c0.548,2.897-5.209,30.231,5.996,17.996c5.777-6.307-1.965-24.259-6.996-15.996"/>
	<path d="M245,389c3.726,2.786,7.383,1.691,11.826,0.826c2.043-4.721,1.711-9.564-1.993-12.648
		c-5.067,0.863-9.212,8.128-9.833,9.822"/>
	<path d="M366,381c-5.469,1.92-14.695,9.141-4.996,14.02c9.781,4.922,8.988-8.738,5.996-12.02"/>
	<path d="M251,451c9.691-1.15,11.396,14.49,2.749,18.972c-8.793,4.556-10.882-14.984-4.749-17.972"/>
	<path d="M410,450c0.742,9.328,12.924,14.856,14.048,2.996c0.938-9.879-11.511-5.339-14.048-3.996"/>
	<path d="M436,477c2.653-3.587,2.022-9.687,6.251-12.749c3.518-2.548,12.229-2.26,16.598-3.123
		c0.788,10.552-14.33,25.529-24.046,16.92c0.312-1.07,1.045-1.753,2.197-2.048"/>
	<path d="M382,425c-5.994,3.937-9.685,17.979,0.754,19.242c8.287,1.002,4.498-14.109,1.246-18.242"/>
	<path d="M280,514c-7.256-9.232,1.865-25.332,12.972-18.749c8.765,5.194-2.359,21.667-10.972,21.749"/>
	<path d="M331,513c2.658-7.555,21.231-12.154,27.849-8.797C356.193,515.457,339.021,526.499,330,515"/>
	<path d="M364,432c-9.928-1.735-8.515,17.235-3.174,20.174c-0.075,2.237,0.759,3.604,1.34,5.632c0.905,3.158,5.001-6.63,5.026-6.704
		c1.683-4.914,0.014-12.23-1.192-17.102"/>
	<path d="M372,497c-2.043-2.062,9.05-16.384,14.996-8.048c6.461,9.056-9.614,11.613-14.996,10.048"/>
	<path d="M231,493c6.21-9.541,19.729-5.281,19.849,5.745c-7.282,2.176-17.792,4.178-21.849-4.745"/>
	<path d="M431,472c-1.118-2.007-11.996-1.53-15.119,2.028c3.595,3.504,14.373,3.424,16.119-2.028"/>
	<path d="M304,447c-9.503-0.84-4.606,17.594-1.749,22.896c4.081-4.106,4.378-17.025,0.749-21.896"/>
</g>
<g id="Calque_1">
	<g>
		<path fill="#E5BC9C" d="M275.484,104.561c-10.882-25.828-52.508-83.496-88.383-58.674
			c-41.166,28.524-26.074,79.655-11.675,118.385"/>
		<path fill="#BF916F" d="M465.395,250.433c-2.769,74.19-65.156,132.089-139.349,129.319l-44.777-1.67
			c-74.189-2.771-132.087-65.158-129.317-139.35l0,0c2.77-74.188,65.156-132.088,139.346-129.318l44.779,1.672
			C410.267,113.855,468.164,176.244,465.395,250.433L465.395,250.433z"/>
		<path fill="#D1A077" d="M150.614,217.33c18.624-7.753,36.325-15.543,56.234-21.393c29.695-8.721,63.939-8.869,94.615-9.275
			c23.132-0.306,50.606,0.498,73.181,5.961c10.944,2.646,21.815,3.767,32.631,6.768c18.465,5.123,37.229,14.258,54.717,21.984
			c3.616-14.251-12.038-31.027-17.684-43.022c-6.019-12.787-14.606-25.725-25.077-36.196c-6.267-6.266-12.427-5.566-18.865-9.426
			c-2.95-1.77-3.44-5.485-7.153-7.852c-2.986-1.904-9.024-2.15-12.435-3.817c-14.705-7.183-29.414-12.573-46.739-13.278
			c-34.12-1.391-70.107-2.129-101.727,8.771c-28.139,9.7-60.062,38.146-70.533,66.229c-4.252,11.4-8.623,23.919-12.271,35.575"/>
		<path fill="#D1A077" d="M172.739,53.88c5.025-8.103,12.119-13.939,21.863-15.545c14.875-2.45,16.216,14.545,10.52,25.313
			c-5.611,10.607-18.293,11.824-27.462,17.646c7.644,14.11,12.413,52.402,4.723,66.716c-0.482,0.899-7.349,10.385-8.182,9.472
			c-6.412-7.043-6.684-21.024-9.002-29.821C160.59,110.181,159.887,74.611,172.739,53.88z"/>
		<path fill="#E5BC9C" d="M349.267,107.313c13.437-26.233,55.258-85.502,91.088-60.057c36.628,26.021,19.206,94.476,4.239,127.062"
			/>
		<path fill="#D1A077" d="M455.299,62.354c-5.385-12.514-14.398-21.156-28.607-20.559c-2.667,17.037,14.815,34.15,20.104,49.867
			c4.273,12.698,2.139,22.578-1.615,35.637c-2.264,7.871-4.093,15.769-3.838,24.014c0.026,0.826,2.758,18.428,4.978,16.326
			c6.917-6.539,8.231-20.448,11.196-29.049C462.704,123.536,465.486,86.022,455.299,62.354z"/>
		<path fill="#EEDED1" d="M191.151,166.535c29.325-45.194,81.157-12.654,103.34,19.703c7.231,10.552,9.916,23.103,10.938,35.594
			c1.922,23.515,1.951,48.671-5.223,71.548c-3.246,10.329-10.351,20.767-17.012,29.156c-9.773,12.312-17.895,11.493-32.436,14.846
			c-21.655,4.992-43.559,0.231-58.337-15.947c-17.191-18.824-26.776-37.6-28.398-63.034c-0.838-13.161-2.086-26.653,1.479-39.5
			C171.195,198.384,179.595,184.342,191.151,166.535z"/>
		<path fill="#EEDED1" d="M331.119,186.701c12.613-14.276,20.827-28.703,41.746-31.562c19.193-2.622,35.723,6.727,49.262,18.974
			c28.059,25.38,40.316,59.232,29.66,96.098c-9.006,31.144-29.529,71.575-67.754,71.968c-23.107,0.233-49.532-1.721-62.072-24.375
			c-10.606-19.159-6.693-40.771-6.839-61.238c-0.197-28.753,2.354-53.665,22.632-76.02"/>
		<path fill="#EEDED1" d="M354.562,371.333c-14.239,12.096-34.509,9.14-51.579,7.148c-12.772-1.489-42.741,2.14-52.281-7.341
			c-6.53-6.498-0.306-16.262,3.308-23.941c8.605-18.289,22.778-35.513,42.002-43.094c19.046-7.508,33.801,4.54,43.833,20.646
			c5.18,8.316,21.317,32.607,17.515,42.674C356.771,368.982,355.812,370.27,354.562,371.333z"/>
		<path d="M253.354,297.954c0.344,0.138,0.694,0.263,1.059,0.374c4.531,1.39,41.214,10.911,43.129,8.653
			c4.802-5.657,0.785-15.511,0.024-22.243c-3.585-31.698,9.218-58.396-9.294-88.411c-6.59-10.687-15.848-19.803-27.12-26.388
			c-12.905-7.536-27.515-12.155-41.954-5.874c1.392-0.606,8.257,3.384,9.732,4.043c-6.722,0.927-8.93,6.162-13.8,9.933
			c-7.844,6.073-19.696,6.46-25.83,13.893c-5.149,6.243-2.86,15.953-7.35,21.81c-3.693,4.816-9.104,4.043-14.531,6.478
			c-4.606,2.068-5.261,2.878-7.812,8.292c-3.3,6.99-6.698,13.374-8.855,20.88c-3.313,11.518,1.569,27.271,5.575,37.462
			c-1.312-3.337,3.78-13.194,4.378-17.188c0.59-3.945,2.25-30.938,0.104-33.366c5.244,5.917,7.573-4.622,9.435-8.052
			c6.781,10.942,9.523,22.468,18.639,32c8.597,8.986,21.708,16.189,27.387,27.592c7.758,4.207,17.914,2.253,25.717,4.351
			C246.465,293.393,249.572,296.442,253.354,297.954z"/>
		<path d="M447.487,225.151c2.405,3.351,7.429,4.797,3.611,10.532c3.541-5.321,12.985,10.936,13.27,13.028
			c1.38,10.118-2.757,20.171-4.308,30.043c-0.965-5.082-5.436-7.638-6.753-12.054c-1.877-6.296,1.119-10.52,1.151-16.68
			c0.057-10.494-9.312-20.785-18.01-25.535c-0.755,0.367-2.202,0.272-3.783,0.737c0.359-0.345,0.514,1.121,0.756,0.439
			c-11.088,0.228-26.885,15.187-33.522,22.912c-9.205,10.712-13.222,23.518-25.023,32.31c-5.983,4.46-13.552,10.154-20.811,13.182
			c-2.565,1.069-44.005,9.604-44.224,9.127c-5.625-12.302,6.053-21.935,8.137-33.351c2.663-14.595-1.455-28.846,2.904-44.021
			c5.996-20.866,27.484-61.847,55.57-55.365c-3.692,3.489-8.867,5.068-12.66,9c7.507-2.462,19.039-6.869,26.871-5.817
			c5.57,0.748,8.863,4.783,14.003,6.217c2.38,0.664,5.368-0.529,7.673,0.414c9.619,3.937,10.6,16.49,18.408,20.663
			c1.872,1,6.294,0.387,7.821,1.669c5.754,4.847,5.162,15.496,8.403,21.715C447.124,224.608,447.298,224.885,447.487,225.151z"/>
		<path d="M273.135,109.805c8.242,3.742,10.984,26.171,13.838,33.213c-12.166-7.98-13.79,9.671-9.044,17.037
			c4.024-2.693,3.894-1.114,7.301,0.383c-1.623,2.817-1.64,6.018-1.364,9.393c28.045,6.217,3.065-28.825,12.012-38.085
			c-0.145,0.149-4.123-6.739-4.307-7.373c-0.859-2.968,0.915-6.802-0.199-9.878c-1.943-5.368-10.156-10.315-12.906-4.491"/>
		<path d="M331.771,111.994c1.65,10.761-6.951,17.659-10.417,27.368c-3.169,8.877-2.394,21.213-2.266,30.714
			c2.97,0.891,6.631,0.53,9.29-0.744c-0.237-5.198,15.56-29.169-1.841-20.067c2.59-5.416,9.358-8.18,8.47-14.545
			c-7.203-4.058,4.597-19.358,6.334-25.388c-2.943-0.676-5.78,0.348-6.291,0.648"/>
		<path d="M308.436,107.919c3.233,8.942-7.838,15.513-6.094,25.258c4.745-1.893,8.9-7.231,7.945-13.28
			c4.123-0.101,6.634,2.231,7.257,6.324c11.86-1.29-6.321-13.464,0.448-16.877"/>
		<path d="M251.405,148.495c-8.226-3.85-25.328-6.605-33.056-1.099c-1.172-0.85-2.476-2.144-3.232-3.4
			c3.777-5.371,14.207-8.146,19.585-5.095c1.657-4.173,5.13-6.591,9.63-5.455c-0.56,3.467,1.052,6.145,1.037,9.323
			c5.462-2.031,10.644,0.174,9.045,6.739C252.35,150.369,252.241,148.738,251.405,148.495"/>
		<path d="M355.648,158.791c7.367-7.068,10.837-5.766,19.635-4.87c6.904,0.702,18.149,1.675,9.435-8.781
			c-3.973-4.767-15.515-5.113-20.97-3.151c-8.6,3.091-9.884,8.094-9.207,17.83"/>
		<path d="M297.988,187.601c2.768,6.528,2.598,13.579,5.91,20.396c9.709-7.888-0.506-17.283-3.658-23.516"/>
		<path d="M310.162,147.486c-2.343,3.389-5.851,6.546-8.517,9.347c7.173,8.059,15.068-0.483,8.437-7.216"/>
		<path d="M315.405,178.642c-11.881,9.989,14.346,12.088,1.146-2.092"/>
		<path d="M295.114,293.188c0.496-2.468,2.065-6.327,3.849-9.384c0.51,1.604,2.406,3.943,2.945,6.086
			c1.012-3.055,3.071-5.864,4.381-8.72c-0.122,3.128,1.426,5.103,1.815,7.319c0.927-1.525,2.702-2.903,4.163-3.72
			c1.317,8.337,9.56,14.247,2.87,22.652c-4.467,5.61-11.101,5.227-17.304,2.619c-11.146-4.683-7.951-6.226-4.932-14.801"/>
		<path d="M310.495,224.366c1.587,6.575-0.544,12.309,1.688,19.17c4.06-3.848,7.083-18.66,0.444-19.089"/>
		<path d="M301.838,256.072c-1.741,4.451-3.642,9.389-1.365,13.663c5.826-1.53,4.877-7.943,3.459-12.517"/>
		<path d="M406.113,151.067c1.826,2.482,4.756,4.311,7.258,5.715c0.555-0.552,1.731-1.626,2.321-2.158
			c-3.153-4.182-6.567-9.152-11.132-11.993c-3.992,3.617-2.088,7.218,2.619,8.477"/>
		<path d="M205.96,136.123c7.166,1.135,12.586-2.477,19.194-3.712c0.406-1.586,0.444-3.4,0.186-5.013
			c-9.945-0.813-14.469,0.32-21.433,6.512"/>
		<path fill="#C99795" d="M296.968,300.73c-0.271-5.513,14.976-5.858,16.968,0.365c-5.02,4.762-12.595,4.551-13.77-0.245"/>
		<path d="M303.047,309.498c1.615,7.038-3.389,20.015-11.473,22.017c-11.443,2.835-15.74-7.576-20.633-13.525
			c-6.951,10.532,12.803,17.812,19.65,16.904c16.077-2.129,10.879-12.245,15.868-24.12c-1.347,6.302-0.85,20.674,7.087,25.002
			c7.453,4.066,13.699,1.392,19.107-3.819c1.952-1.882,5.768-5.168,6.194-8.017c0.28-1.873-1.233-4.25-1.161-4.873
			c-0.846,7.312-12.502,14.963-19.512,14.243c-8.853-0.911-10.445-13.748-10.945-21.52"/>
		<path d="M275.022,316.639c-0.208,1.328-0.14,2.855-0.049,4.173c2.271-1.356,2.829-3.442,0.759-4.147"/>
		<path d="M279.022,323.904c0.812,1.945,1.023,3.194,3.347,2.861c0.851-3.016-0.518-2.829-2.611-3.545"/>
		<path d="M330.96,324.419c-0.032-1.132-0.584-2.245,1.373-3.398c0.101,0.159,0.854,1.312,0.909,1.351
			c-0.452,1.424-1.57,1.934-2.309,2.76"/>
		<path d="M325.113,328.471c1.154-1.178,2.792-2.112,4.263-2.616c-0.229,3.301-1.717,2.676-3.552,2.645"/>
		<path d="M170.745,128.422c-11.498,5.43-10.749-61.27,4.798-65.346C174.861,76.182,186.33,121.063,170.745,128.422z"/>
		<path d="M438.943,133.951c-0.949,5.761,14.835-1.938,15.971-2.986c5.445-5.02,5.274-13.035,6.128-19.637
			c1.376-10.641,2.706-30.27-7.232-37.746c-8.704,9.178-4.341,21.994-7.22,32.903C443.922,116.59,440.718,123.198,438.943,133.951z"
			/>
		<path d="M409.493,93.05c0.163-0.095,0.326-0.186,0.489-0.271c-2.48,4.489-4.641,11.563-4.805,16.72
			c2.01-4.17,8.39-9.614,13.355-12.862c-5.032,3.293-9.746,19.049-8.521,24.53c3.852-4.456,6.526-8.351,12.284-10.862
			c-2.808,10.719-9.592,15.775-0.707,25.031c2.384,2.483,25.876,18.959,24.645,21.413c1.661-3.312,3.577-6.171,5.965-8.922
			c-0.601,8.9-9.19,14.83-8.601,23.719c-8.036-3.488-15.6-16.669-22.703-23.104c-6.762-6.122-21.415-15.626-24.479-24.303
			C393.18,114.975,400.966,98.007,409.493,93.05z"/>
		<path d="M229.855,115.662c-0.911-10.462-12.469-24.479-20.824-29.885c0.469,6.134,7.792,9.549,8.436,15.098
			c-3.578-2.721-7.391-5.199-11.437-6.654c2.433,5.022,7.411,10.778,8.069,16.492c-2.799-1.878-6.26-3.547-9.998-3.875
			c11.874,10.636,5,15.213-6.077,21.694c-7.657,4.481-15.269,13.635-19.411,21.409c-2.411-0.857-3.581-2.865-5.549-4.812
			c-2.017,1.888-2.94,9.22-0.256,11.161c3.334,2.414,6.195-1.196,8.863-3.994c4.527-4.751,8.93-9.166,13.883-13.856
			c6.101-5.773,11.085-9.483,18.46-13.227c5.61-2.847,12.355-5.292,17.263-9.497"/>
		<path d="M204.206,326.093c-2.015-2.15-4.935-3.208-8.173-3.4c-7.497,7.584,14.306,21.478,21.267,20.785
			c-2.317-5.002-8.689-16.577-14.12-18.49"/>
		<path d="M416.565,328.682c-6.836,0.863-17.114,4.197-17.364,12.006c5.696,1.1,20.752-5.357,14.086-9.992"/>
		<path d="M248.014,360.837c-5.666,11.809-12.495-2.622-7.137-7.771C247.472,346.727,250.818,354.989,248.014,360.837z"/>
		<path d="M378.693,342.215c-3.48,0.974-11.154,7.938-4.676,10.31c5.383,1.971,12.061-7.846,3.571-9.282"/>
		<path d="M177.873,173.509c-10.817,4.354-1.312,14.96,3.143,4.392c-1.237-1.234-1.317-3.264-2.076-4.353"/>
		<path d="M433.038,173.425c-2.257,2.115-3.862,5.525-4.442,8.137c0.98,0.862,2.759,1.899,3.808,2.381
			c0.982-1.127,3.255-4.759,3.78-6.134c-0.742-1.39-1.222-3.034-2.079-4.344"/>
		<path d="M366.716,119.702c4.071,8.06,7.358,8.701,15.409,11.116c-0.131-6.631-7.064-12.11-13.198-13.168"/>
		<path fill="none" stroke="#8C6239" stroke-width="6" stroke-miterlimit="10" d="M275.484,104.561
			c-10.615-25.176-53.553-86.543-88.809-60.885c-35.906,26.176-23.447,87.789-11.249,120.596"/>
		<path fill="none" stroke="#8C6239" stroke-width="6" stroke-miterlimit="10" d="M349.267,107.313
			c12.397-24.192,47.786-70.368,78.422-69.353c21.833,0.723,28.309,31.357,31.273,48.88c4.948,29.231-2.14,60.854-14.368,87.478"/>
		<path fill="none" stroke="#8C6239" stroke-width="6" stroke-miterlimit="10" d="M463.342,248.221
			c-2.771,74.19-65.157,132.089-139.348,129.32l-44.777-1.672c-74.189-2.77-132.089-65.158-129.318-139.348l0,0
			c2.77-74.19,65.156-132.089,139.347-129.319l44.776,1.673C408.212,111.645,466.111,174.031,463.342,248.221L463.342,248.221z"/>
		<g>
			<path fill="#F1D17C" d="M292.401,251.449c-1.143,30.617-26.89,54.513-57.508,53.369l0,0
				c-30.618-1.143-54.512-26.891-53.368-57.508l0.676-18.125c1.143-30.617,26.889-54.512,57.507-53.369l0,0
				c30.619,1.144,54.513,26.892,53.372,57.509L292.401,251.449z"/>
			<g>
				<path fill="#534741" d="M290.901,251.449c-1.229,24.667-18.625,45.283-42.692,50.739c-24.201,5.486-48.94-7.54-59.866-29.331
					c-4.456-8.888-5.577-18.578-5.212-28.379c0.27-7.237,0.129-14.657,1.208-21.832c3.644-24.211,24.333-42.753,48.399-45.157
					c22.36-2.235,43.583,10.468,53.522,30.289C293.17,221.555,291.456,236.631,290.901,251.449c-0.072,1.936,2.928,1.929,3,0
					c0.586-15.646,1.862-30.537-5.05-45.186c-9.164-19.417-29.377-31.456-50.553-31.982c-21.363-0.53-41.237,12.034-51.202,30.646
					c-7.288,13.613-7.107,30.105-7.106,45.194c0.002,30.81,26.111,55.479,56.312,56.231c30.803,0.767,56.097-24.741,57.599-54.904
					C293.998,249.515,290.997,249.524,290.901,251.449z"/>
			</g>
		</g>
		<g>
			<path fill="#F1D17C" d="M436.331,256.822c-1.144,30.617-26.893,54.513-57.509,53.368l0,0
				c-30.619-1.142-54.514-26.89-53.371-57.508l0.678-18.123c1.143-30.62,26.891-54.513,57.509-53.372l0,0
				c30.617,1.145,54.513,26.892,53.368,57.51L436.331,256.822z"/>
			<g>
				<path fill="#736357" d="M434.831,256.822c-1.229,24.667-18.626,45.283-42.694,50.738c-24.2,5.486-48.94-7.54-59.867-29.33
					c-4.457-8.888-5.579-18.579-5.213-28.38c0.271-7.236,0.131-14.656,1.21-21.831c3.644-24.211,24.335-42.753,48.401-45.159
					c22.359-2.235,43.583,10.47,53.521,30.289C437.096,226.925,435.383,242.005,434.831,256.822c-0.072,1.936,2.929,1.929,3,0
					c0.583-15.646,1.859-30.54-5.052-45.187c-9.162-19.416-29.377-31.458-50.551-31.983c-21.363-0.529-41.238,12.035-51.204,30.648
					c-7.287,13.611-7.109,30.105-7.108,45.193c0.003,30.812,26.113,55.479,56.315,56.231c30.802,0.768,56.097-24.741,57.6-54.903
					C437.928,254.888,434.927,254.897,434.831,256.822z"/>
			</g>
		</g>
		<path d="M280.047,248.736c-0.757,20.282-17.813,36.109-38.094,35.354l0,0c-20.283-0.757-36.11-17.812-35.354-38.093l0.457-12.241
			c0.756-20.284,17.812-36.112,38.095-35.354l0,0c20.281,0.757,36.108,17.812,35.352,38.095L280.047,248.736z"/>
		<path d="M409.918,255.711c-0.756,20.281-17.812,36.11-38.094,35.352l0,0c-20.281-0.756-36.109-17.812-35.353-38.095l0.456-12.24
			c0.758-20.282,17.812-36.111,38.096-35.352l0,0c20.28,0.756,36.11,17.811,35.353,38.094L409.918,255.711z"/>
		<path opacity="0.2" fill="#FFFFFF" d="M279.5,285.806c-8.655,9.313-21.039,17.627-33.93,19.018
			c-9.235,0.994-18.517-0.358-26.908-3.121c-8.449-2.782-13.988-6.587-20.007-12.845c-4.051-4.212-12.054-11.446-12.229-17.414
			c7.188,3.594,20.061,3.853,28.194,4.506c10.04,0.806,20.092-1.434,29.862-3.317c19.068-3.675,32.91-8.68,49.146-18.736
			c-0.812,0.505-3.814,12.456-4.346,13.936c-2.303,6.426-4.993,12.818-9.704,17.889C279.551,285.748,279.526,285.775,279.5,285.806z
			"/>
		<path opacity="0.2" fill="#FFFFFF" d="M336.469,287.932c7.938,9.934,19.668,19.146,32.418,21.495
			c9.134,1.679,18.491,1.023,27.066-1.106c8.634-2.146,14.44-5.527,20.908-11.318c4.352-3.898,12.874-10.515,13.495-16.452
			c-7.438,3.046-20.294,2.344-28.452,2.39c-10.072,0.056-19.93-2.927-29.532-5.534c-18.741-5.087-32.171-11.108-47.614-22.347
			c0.775,0.562,2.878,12.705,3.295,14.22c1.818,6.579,4.024,13.155,8.344,18.562C336.422,287.871,336.445,287.901,336.469,287.932z"
			/>
		<path fill="#FFFFFF" d="M239.144,295.796c3.496,6.014-7.767,5.949-11.596,5.542c-6.793-0.725-13.852-3.779-19.777-7.027
			c-0.643-0.353-15.38-11.409-10.298-12.082c7.7-1.018,14.528,6.232,21.628,8.346c4.336,1.292,16.007,0.13,19.14,3.935
			C238.611,294.967,238.911,295.396,239.144,295.796z"/>
		<path fill="#FFFFFF" d="M411.74,286.776c9.886,9.87-27.229,24.352-36.59,18.322c2.574-3.366,6.921-4.321,11.221-5.578
			C395.688,296.797,404.479,293.527,411.74,286.776z"/>
		<g>
			<path d="M273.961,316.42c-44.786-5.033-94.558-16.623-136.611,5.796c-1.82,0.971-0.312,3.795,1.512,2.82
				c41.447-22.094,90.848-10.38,134.98-5.418C275.896,319.849,276.001,316.648,273.961,316.42L273.961,316.42z"/>
		</g>
		<g>
			<path d="M272.697,321.709c-22.058-3.348-44.301-6.191-66.659-5.247c-20.494,0.868-41.93,5.407-57.771,19.222
				c-1.558,1.359,0.622,3.703,2.177,2.348c16.423-14.322,38.915-17.978,60.016-18.525c20.811-0.542,41.592,2.284,62.118,5.403
				C274.616,325.219,274.715,322.018,272.697,321.709L272.697,321.709z"/>
		</g>
		<g>
			<path d="M274.75,323.923c-21.186-0.749-42.688,0.512-63.337,5.538c-19.188,4.671-39.282,13.721-49.397,31.617
				c-1.014,1.794,1.686,3.515,2.702,1.716c10.239-18.113,30.781-26.333,50.092-30.851c19.497-4.563,39.865-5.529,59.821-4.822
				C276.694,327.193,276.812,323.995,274.75,323.923L274.75,323.923z"/>
		</g>
		<g>
			<path d="M334.32,322.725c10.537-4.163,21.668-4.36,32.837-3.961c11.345,0.408,22.656,1.383,33.947,2.544
				c9.433,0.97,18.765,2.763,28.147,4.123c8.354,1.212,18.215,2.676,24.401,8.971c1.446,1.472,3.796-0.701,2.347-2.177
				c-5.766-5.866-14.019-7.815-21.854-9.227c-10.197-1.837-20.584-3.464-30.87-4.665c-12.566-1.471-25.211-2.381-37.85-2.833
				c-11.166-0.4-22.135,0.26-32.614,4.403C330.896,320.659,332.423,323.475,334.32,322.725L334.32,322.725z"/>
		</g>
		<g>
			<path d="M332.242,328.204c19.614-1.14,39.352-1.2,58.89,1.071c18.438,2.146,40.303,6.457,53.396,20.801
				c1.393,1.526,3.739-0.654,2.345-2.177c-12.818-14.043-33.216-18.629-51.271-21.254c-20.874-3.033-42.227-2.86-63.24-1.641
				C330.319,325.124,330.182,328.323,332.242,328.204L332.242,328.204z"/>
		</g>
		<g>
			<path d="M328.205,333.334c18.242-2.938,38.229,0.684,55.873,5.269c16.685,4.333,39.994,11.73,47.81,28.826
				c0.856,1.879,3.676,0.362,2.82-1.511c-7.884-17.248-30.359-24.932-47.164-29.691c-18.841-5.337-40.513-9.157-60.072-6.008
				C325.434,330.547,326.178,333.66,328.205,333.334L328.205,333.334z"/>
		</g>
		<path d="M453.285,279.29c-2.756-3.275-6.832-4.728-10.893-3.479c-0.381,3.662-2.361,9.363,0.628,11.759
			c5.318,4.263,11.612-1.14,10.717-6.331"/>
	</g>
	<g>
		<g>
			<path fill="#8C6239" d="M247.41,374.486c-12.997,28.938-29.81,56.16-34.764,88.074c-1.803,11.609-0.487,23.571,7.379,32.73
				c7.293,8.493,19.353,10.784,29.975,9.709c3.812-0.386,3.849-6.39,0-6c-9.939,1.006-19.73-0.963-26.474-8.814
				c-8.412-9.796-5.809-24.932-3.009-36.262c3.283-13.285,7.906-26.325,13.641-38.736c5.865-12.694,12.702-24.913,18.432-37.674
				C254.162,374.016,248.992,370.961,247.41,374.486L247.41,374.486z"/>
		</g>
	</g>
	<g>
		<g>
			<path fill="#8C6239" d="M361.301,377.514c5.24,11.671,11.348,22.921,16.902,34.44c5.748,11.919,10.065,24.204,13.784,36.884
				c3.395,11.575,6.431,24.682,1.19,36.152c-4.912,10.754-16.238,17.502-27.664,12.419c-3.502-1.558-6.557,3.611-3.027,5.182
				c10.973,4.881,21.963,2.427,30.215-6.232c8.681-9.107,10.402-21.838,8.542-33.811c-4.958-31.909-21.768-59.126-34.763-88.062
				C364.898,370.961,359.729,374.016,361.301,377.514L361.301,377.514z"/>
		</g>
	</g>
	<g>
		<g>
			<path fill="#8C6239" d="M247,405c-2.24,18.574-4.499,37.145-4.499,55.886c0,16.87,1.033,37.923,13.142,51.032
				c6.258,6.775,14.566,11.688,23.992,10.189c8.393-1.335,14.738-8.873,18.963-15.644c13.224-21.188,10.617-47.983,8.951-71.713
				c-0.743-10.576-1.503-21.144-1.549-31.751c-0.017-3.868-6.017-3.87-6,0c0.064,14.936,1.573,29.793,2.366,44.696
				c0.685,12.889,1.209,26.489-1.998,39.097c-2.304,9.057-6.577,18.169-13.373,24.712c-7.875,7.582-17.233,5.23-24.741-1.531
				c-13.382-12.054-13.753-33.697-13.753-50.36c0-18.301,2.312-36.478,4.499-54.613C253.463,401.164,247.457,401.209,247,405
				L247,405z"/>
		</g>
	</g>
	<g>
		<g>
			<path fill="#8C6239" d="M311,405c-2.24,18.574-4.499,37.145-4.499,55.886c0,16.87,1.033,37.923,13.142,51.032
				c6.258,6.775,14.566,11.688,23.992,10.189c8.393-1.335,14.738-8.873,18.963-15.644c13.224-21.188,10.617-47.983,8.951-71.713
				c-0.743-10.576-1.503-21.144-1.549-31.751c-0.017-3.868-6.017-3.87-6,0c0.064,14.936,1.573,29.793,2.366,44.696
				c0.685,12.889,1.209,26.489-1.998,39.097c-2.304,9.057-6.577,18.169-13.373,24.712c-7.875,7.582-17.233,5.23-24.741-1.531
				c-13.382-12.054-13.753-33.697-13.753-50.36c0-18.301,2.312-36.478,4.499-54.613C317.463,401.164,311.457,401.209,311,405
				L311,405z"/>
		</g>
	</g>
	<g>
		<g>
			<path fill="#8C6239" d="M298.486,502.591c5.963,3.339,12.064,3.339,18.027,0c3.376-1.891,0.352-7.073-3.027-5.182
				c-4.084,2.287-7.889,2.287-11.973,0C298.135,495.518,295.11,500.7,298.486,502.591L298.486,502.591z"/>
		</g>
	</g>
	<g>
		<g>
			<path fill="#8C6239" d="M400.121,457.121c7.902-6.973,19.071-10.373,29.338-11.751c10.592-1.421,23.699-0.473,30.548,8.944
				c7.989,10.986-8.722,21.049-17.078,23.881c-13.031,4.416-27.786,2.787-41.131,0.912c-3.782-0.531-5.413,5.249-1.596,5.785
				c16.113,2.265,33.302,3.885,48.7-2.566c10.65-4.463,22.912-15.516,17.752-28.248c-5.133-12.661-21.095-15.685-33.121-15.086
				c-13.152,0.654-27.649,5.059-37.654,13.887C392.972,455.443,397.232,459.671,400.121,457.121L400.121,457.121z"/>
		</g>
	</g>
</g>
<g id="Calque_4">
</g>
<g id="Calque_3">
</g>
</svg>
